<svg xmlns="http://www.w3.org/2000/svg" viewBox="0 0 1350 1000"><defs><style>.cls-1{fill:#f6f6f6;}</style></defs><g id="Cells1"><path class="cls-1" d="M46.18,112a13.06,13.06,0,0,0-8.7-3c-7,0-12.15,4.49-12.15,10.68s5.11,10.68,12.15,10.68a12.79,12.79,0,0,0,8.7-3l9.66,8.38a27.83,27.83,0,0,1-18.36,6.73c-14.29,0-25.89-10.19-25.89-22.75S23.19,97,37.48,97a27.5,27.5,0,0,1,18.22,6.61Z"/><path class="cls-1" d="M66.19,97H98.36v9.89H79.79v7.4H96.22v10.07H79.79v8.37H98.36v9.77H66.19Z"/><path class="cls-1" d="M108.09,97h13.6v33.49h18.64v12H108.09Z"/><path class="cls-1" d="M150.06,97h13.6v33.49H182.3v12H150.06Z"/><path class="cls-1" d="M211.08,110.93a3.76,3.76,0,0,0-3.93-3.46,3.7,3.7,0,0,0-3.87,3.46,3.65,3.65,0,0,0,3.87,3.4,16.69,16.69,0,0,1,12.49,5.4,12.91,12.91,0,0,1,3.45,8.8c0,7.76-7.11,13.95-15.94,13.95s-16-6.13-16-14.14h12.08a3.65,3.65,0,0,0,3.87,3.46,3.71,3.71,0,0,0,3.93-3.4,3.75,3.75,0,0,0-3.93-3.45c-8.84,0-15.88-6.19-15.88-14s7-14,15.88-14,15.94,6.19,15.94,14Z"/></g><g id="Cells2"><path class="cls-1" d="M45.31,169.51a13,13,0,0,0-8.7-3c-7,0-12.14,4.49-12.14,10.68s5.1,10.67,12.14,10.67a12.77,12.77,0,0,0,8.7-3L55,193.23A27.83,27.83,0,0,1,36.61,200c-14.28,0-25.88-10.2-25.88-22.75s11.6-22.75,25.88-22.75a27.5,27.5,0,0,1,18.23,6.61Z"/><path class="cls-1" d="M65.33,154.47H97.5v9.88H78.93v7.41H95.36v10.07H78.93v8.37H97.5V200H65.33Z"/><path class="cls-1" d="M107.23,154.47h13.6V188h18.64v12H107.23Z"/><path class="cls-1" d="M149.2,154.47h13.6V188h18.64v12H149.2Z"/><path class="cls-1" d="M210.22,168.42a3.76,3.76,0,0,0-3.93-3.46,3.7,3.7,0,0,0-3.87,3.46,3.65,3.65,0,0,0,3.87,3.4,16.71,16.71,0,0,1,12.49,5.4,12.89,12.89,0,0,1,3.45,8.79c0,7.77-7.11,14-15.94,14s-15.95-6.13-15.95-14.14h12.08a3.66,3.66,0,0,0,3.87,3.46,3.71,3.71,0,0,0,3.93-3.4,3.76,3.76,0,0,0-3.93-3.46c-8.84,0-15.88-6.18-15.88-14s7-14,15.88-14,15.94,6.18,15.94,13.95Z"/></g><g id="Cells3"><path class="cls-1" d="M46.18,227a13.06,13.06,0,0,0-8.7-3c-7,0-12.15,4.49-12.15,10.68s5.11,10.68,12.15,10.68a12.79,12.79,0,0,0,8.7-3l9.66,8.37a27.83,27.83,0,0,1-18.36,6.73c-14.29,0-25.89-10.19-25.89-22.75S23.19,212,37.48,212a27.5,27.5,0,0,1,18.22,6.61Z"/><path class="cls-1" d="M66.19,212H98.36v9.89H79.79v7.4H96.22v10.07H79.79v8.37H98.36v9.77H66.19Z"/><path class="cls-1" d="M108.09,212h13.6v33.49h18.64v12H108.09Z"/><path class="cls-1" d="M150.06,212h13.6v33.49H182.3v12H150.06Z"/><path class="cls-1" d="M211.08,225.9a3.75,3.75,0,0,0-3.93-3.45,3.69,3.69,0,0,0-3.87,3.45,3.65,3.65,0,0,0,3.87,3.4,16.73,16.73,0,0,1,12.49,5.4,12.91,12.91,0,0,1,3.45,8.8c0,7.76-7.11,13.95-15.94,13.95s-16-6.12-16-14.13h12.08a3.65,3.65,0,0,0,3.87,3.45,3.7,3.7,0,0,0,3.93-3.39,3.76,3.76,0,0,0-3.93-3.46c-8.84,0-15.88-6.19-15.88-13.95s7-14,15.88-14,15.94,6.19,15.94,14Z"/></g><g id="Cells4"><path class="cls-1" d="M46.18,282.44a13.06,13.06,0,0,0-8.7-3c-7,0-12.15,4.49-12.15,10.68s5.11,10.67,12.15,10.67a12.79,12.79,0,0,0,8.7-3l9.66,8.37a27.78,27.78,0,0,1-18.36,6.74c-14.29,0-25.89-10.2-25.89-22.75s11.6-22.75,25.89-22.75A27.45,27.45,0,0,1,55.7,274Z"/><path class="cls-1" d="M66.19,267.4H98.36v9.88H79.79v7.41H96.22v10.07H79.79v8.37H98.36v9.77H66.19Z"/><path class="cls-1" d="M108.09,267.4h13.6v33.48h18.64v12H108.09Z"/><path class="cls-1" d="M150.06,267.4h13.6v33.48H182.3v12H150.06Z"/><path class="cls-1" d="M211.08,281.35a3.76,3.76,0,0,0-3.93-3.46,3.7,3.7,0,0,0-3.87,3.46,3.65,3.65,0,0,0,3.87,3.4,16.69,16.69,0,0,1,12.49,5.4,12.89,12.89,0,0,1,3.45,8.79c0,7.77-7.11,14-15.94,14s-16-6.13-16-14.14h12.08a3.66,3.66,0,0,0,3.87,3.46,3.71,3.71,0,0,0,3.93-3.4,3.76,3.76,0,0,0-3.93-3.46c-8.84,0-15.88-6.18-15.88-13.95s7-14,15.88-14,15.94,6.18,15.94,14Z"/></g><g id="Cells5"><path class="cls-1" d="M46.18,337.88a13.06,13.06,0,0,0-8.7-3c-7,0-12.15,4.49-12.15,10.68s5.11,10.68,12.15,10.68a12.79,12.79,0,0,0,8.7-3l9.66,8.38a27.83,27.83,0,0,1-18.36,6.73c-14.29,0-25.89-10.19-25.89-22.75s11.6-22.75,25.89-22.75a27.5,27.5,0,0,1,18.22,6.61Z"/><path class="cls-1" d="M66.19,322.84H98.36v9.89H79.79v7.4H96.22V350.2H79.79v8.37H98.36v9.77H66.19Z"/><path class="cls-1" d="M108.09,322.84h13.6v33.49h18.64v12H108.09Z"/><path class="cls-1" d="M150.06,322.84h13.6v33.49H182.3v12H150.06Z"/><path class="cls-1" d="M211.08,336.79a3.76,3.76,0,0,0-3.93-3.46,3.7,3.7,0,0,0-3.87,3.46,3.65,3.65,0,0,0,3.87,3.4,16.69,16.69,0,0,1,12.49,5.4,12.91,12.91,0,0,1,3.45,8.8c0,7.76-7.11,13.95-15.94,13.95s-16-6.13-16-14.14h12.08a3.65,3.65,0,0,0,3.87,3.46,3.71,3.71,0,0,0,3.93-3.4,3.75,3.75,0,0,0-3.93-3.45c-8.84,0-15.88-6.19-15.88-14s7-14,15.88-14,15.94,6.19,15.94,14Z"/></g><g id="Cells6"><path class="cls-1" d="M45.31,395.37a13,13,0,0,0-8.7-3c-7,0-12.14,4.49-12.14,10.68s5.1,10.67,12.14,10.67a12.77,12.77,0,0,0,8.7-3L55,419.09a27.83,27.83,0,0,1-18.37,6.74c-14.28,0-25.88-10.2-25.88-22.75s11.6-22.75,25.88-22.75a27.5,27.5,0,0,1,18.23,6.61Z"/><path class="cls-1" d="M65.33,380.33H97.5v9.88H78.93v7.41H95.36v10.07H78.93v8.37H97.5v9.77H65.33Z"/><path class="cls-1" d="M107.23,380.33h13.6v33.48h18.64v12H107.23Z"/><path class="cls-1" d="M149.2,380.33h13.6v33.48h18.64v12H149.2Z"/><path class="cls-1" d="M210.22,394.28a3.76,3.76,0,0,0-3.93-3.46,3.7,3.7,0,0,0-3.87,3.46,3.65,3.65,0,0,0,3.87,3.4,16.71,16.71,0,0,1,12.49,5.4,12.89,12.89,0,0,1,3.45,8.79c0,7.77-7.11,14-15.94,14s-15.95-6.13-15.95-14.14h12.08a3.66,3.66,0,0,0,3.87,3.46,3.71,3.71,0,0,0,3.93-3.4,3.76,3.76,0,0,0-3.93-3.46c-8.84,0-15.88-6.18-15.88-14s7-14,15.88-14,15.94,6.18,15.94,13.95Z"/></g><g id="Intensifies"><path class="cls-1" d="M302.42,96.15h23.11V189.1H302.42Z"/><path class="cls-1" d="M407.9,189.1l-41.54-44v44H343.25V96.15h9.38L394.29,140V96.15H417.4V189.1Z"/><path class="cls-1" d="M433.24,96h69.35v24.29H479.24V189.1H456.12V120.32H433.24Z"/><path class="cls-1" d="M518.54,96.15h54.68v20.2H541.66v15.12h27.92v20.58H541.66v17.1h31.56V189.1H518.54Z"/><path class="cls-1" d="M654.42,189.1l-41.54-44v44H589.77V96.15h9.38L640.81,140V96.15h23.11V189.1Z"/><path class="cls-1" d="M714,124.66a7,7,0,0,0-6.69-7.07,6.87,6.87,0,0,0-6.57,7.07,6.75,6.75,0,0,0,6.57,6.94,26.5,26.5,0,0,1,21.24,11,29.5,29.5,0,0,1,5.87,18c0,15.86-12.09,28.5-27.11,28.5s-27.1-12.52-27.1-28.87h20.53a6.64,6.64,0,1,0,13.26.12,7,7,0,0,0-6.69-7.06c-15,0-27-12.65-27-28.51s12-28.63,27-28.63,27.11,12.64,27.11,28.51Z"/><path class="cls-1" d="M750.75,96.15h23.11V189.1H750.75Z"/><path class="cls-1" d="M791.58,96.15h55.14v20.08h-32v15.12H843v20.7H814.69v37H791.58Z"/><path class="cls-1" d="M863.15,96.15h23.11V189.1H863.15Z"/><path class="cls-1" d="M904,96.15h54.68v20.2H927.09v15.12H955v20.58H927.09v17.1h31.57V189.1H904Z"/><path class="cls-1" d="M1007.58,124.66a7,7,0,0,0-6.68-7.07,6.87,6.87,0,0,0-6.57,7.07,6.75,6.75,0,0,0,6.57,6.94,26.48,26.48,0,0,1,21.23,11,29.44,29.44,0,0,1,5.87,18c0,15.86-12.09,28.5-27.1,28.5s-27.11-12.52-27.11-28.87h20.54a6.64,6.64,0,1,0,13.25.12,7,7,0,0,0-6.68-7.06c-15,0-27-12.65-27-28.51s12-28.63,27-28.63,27.1,12.64,27.1,28.51Z"/></g><g id="Dark"><path class="cls-1" d="M491.41,873.63h19.25c14.32,0,25.94,12.06,25.94,26.92S525,927.48,510.66,927.48H491.41ZM505,913.55h5.74a12.75,12.75,0,0,0,0-25.49H505Z"/><path class="cls-1" d="M540.5,927.48l24.22-53.85h6.16l24.42,53.85H581.67l-3.18-7H557.24l-3.11,7Zm22.07-19h10.59l-5.26-11.84Z"/><path class="cls-1" d="M632.36,927.48l-8-14.29h-8.44v14.29H602.25V873.63h21.87c10.52,0,19.1,8.9,19.1,19.81A20.11,20.11,0,0,1,637.06,908l11,19.53ZM615.89,901h8.44a7.72,7.72,0,0,0,0-15.43h-8.44Z"/><path class="cls-1" d="M705,873.63,681.3,898.25l28.09,29.23H690.16l-18.48-19.1-3.25,3.44v15.66H654.8V873.63h13.63v18.16l17.44-18.16Z"/></g><g id="Dark2"><path class="cls-1" d="M717.33,873.63h19.24c14.32,0,25.94,12.06,25.94,26.92s-11.62,26.93-25.94,26.93H717.33Zm13.56,39.92h5.75a12.75,12.75,0,0,0,0-25.49h-5.75Z"/><path class="cls-1" d="M766.41,927.48l24.22-53.85h6.16l24.42,53.85H807.59l-3.19-7H783.16l-3.11,7Zm22.08-19h10.58l-5.25-11.84Z"/><path class="cls-1" d="M858.27,927.48l-8-14.29H841.8v14.29H828.17V873.63H850c10.52,0,19.1,8.9,19.1,19.81A20.11,20.11,0,0,1,863,908l11,19.53ZM841.8,901h8.44a7.72,7.72,0,0,0,0-15.43H841.8Z"/><path class="cls-1" d="M930.88,873.63l-23.67,24.62,28.09,29.23H916.07l-18.47-19.1-3.26,3.44v15.66H880.71V873.63h13.63v18.16l17.44-18.16Z"/></g><g id="CellsBig"><path class="cls-1" d="M1305.53,546a21.18,21.18,0,0,0,5.93-15.24c0-12.33-9-21.28-21.29-21.28s-21.29,8.95-21.29,21.28a20.78,20.78,0,0,0,6,15.24l-16.69,16.94a45.35,45.35,0,1,1,77.29-32.18,44.92,44.92,0,0,1-13.18,31.94Z"/><path class="cls-1" d="M1335.53,581.05v56.36h-19.72V604.88h-14.75v28.78H1281V604.88h-16.69v32.53h-19.47V581.05Z"/><path class="cls-1" d="M1335.53,654.47v23.82h-66.77V711h-23.94V654.47Z"/><path class="cls-1" d="M1335.53,728v23.83h-66.77v32.66h-23.94V728Z"/><path class="cls-1" d="M1307.71,834.92a7,7,0,0,0,6.89-6.89,6.86,6.86,0,0,0-6.89-6.77,6.76,6.76,0,0,0-6.77,6.77A28.06,28.06,0,1,1,1273,800.09v21.17a6.79,6.79,0,0,0-6.9,6.77,6.87,6.87,0,0,0,6.78,6.89,7,7,0,0,0,6.89-6.89A27.88,27.88,0,1,1,1307.71,856Z"/></g><g id="Interlinked1"><path class="cls-1" d="M10.21,11.18H25.15V87.64H10.21Z"/><path class="cls-1" d="M78.38,87.64,51.54,51.45V87.64H36.6V11.18h6.07L69.59,47.27V11.18H84.53V87.64Z"/><path class="cls-1" d="M94.76,11.07h44.82v20H124.49V87.64H109.55V31.06H94.76Z"/><path class="cls-1" d="M149.89,11.18h35.34V27.79h-20.4V40.23h18V57.15h-18V71.22h20.4V87.64H149.89Z"/><path class="cls-1" d="M228.91,87.64l-8.8-20.29h-9.25V87.64H195.92V11.18h24c11.53,0,20.93,12.64,20.93,28.13a33.12,33.12,0,0,1-6.75,20.6l12.06,27.73ZM210.86,50h9.25c4.55,0,8.19-4.79,8.19-10.91s-3.64-11-8.19-11h-9.25Z"/><path class="cls-1" d="M253.47,11.18h14.94V67.45h20.48V87.64H253.47Z"/><path class="cls-1" d="M299.5,11.18h14.94V87.64H299.5Z"/><path class="cls-1" d="M367.67,87.64,340.83,51.45V87.64H325.89V11.18H332l26.92,36.09V11.18h14.93V87.64Z"/><path class="cls-1" d="M440.24,11.18l-25.93,35,30.78,41.5H424L403.77,60.52l-3.57,4.89V87.64H385.26V11.18H400.2V37l19.11-25.79Z"/><path class="cls-1" d="M450.33,11.18h35.33V27.79h-20.4V40.23h18.05V57.15H465.26V71.22h20.4V87.64H450.33Z"/><path class="cls-1" d="M496.35,11.18h21.09c15.69,0,28.43,17.12,28.43,38.23s-12.74,38.23-28.43,38.23H496.35Zm14.87,56.48h6.29c7.43,0,13.5-8.16,13.5-18.15s-6.07-18-13.5-18h-6.29Z"/></g><g id="Interlinked2"><path class="cls-1" d="M560.25,11.18h14.94V87.64H560.25Z"/><path class="cls-1" d="M628.42,87.64,601.58,51.45V87.64H586.64V11.18h6.07l26.92,36.09V11.18h14.94V87.64Z"/><path class="cls-1" d="M644.8,11.07h44.82v20H674.53V87.64H659.59V31.06H644.8Z"/><path class="cls-1" d="M699.93,11.18h35.34V27.79h-20.4V40.23h18V57.15h-18V71.22h20.4V87.64H699.93Z"/><path class="cls-1" d="M779,87.64l-8.8-20.29H760.9V87.64H746V11.18h24c11.53,0,20.93,12.64,20.93,28.13a33.12,33.12,0,0,1-6.75,20.6l12.06,27.73ZM760.9,50h9.25c4.55,0,8.19-4.79,8.19-10.91s-3.64-11-8.19-11H760.9Z"/><path class="cls-1" d="M803.51,11.18h14.94V67.45h20.48V87.64H803.51Z"/><path class="cls-1" d="M849.54,11.18h14.94V87.64H849.54Z"/><path class="cls-1" d="M917.71,87.64,890.87,51.45V87.64H875.93V11.18H882l26.92,36.09V11.18h14.93V87.64Z"/><path class="cls-1" d="M990.28,11.18l-25.93,35,30.78,41.5H974.05L953.81,60.52l-3.57,4.89V87.64H935.3V11.18h14.94V37l19.11-25.79Z"/><path class="cls-1" d="M1000.37,11.18h35.33V27.79h-20.4V40.23h18V57.15h-18V71.22h20.4V87.64h-35.33Z"/><path class="cls-1" d="M1046.39,11.18h21.09c15.69,0,28.43,17.12,28.43,38.23s-12.74,38.23-28.43,38.23h-21.09Zm14.87,56.48h6.29c7.43,0,13.5-8.16,13.5-18.15s-6.07-18-13.5-18h-6.29Z"/></g><g id="Interlinked3"><path class="cls-1" d="M1333.72,99.5v10.56h-42.31V99.5Z"/><path class="cls-1" d="M1291.41,147.71l20-19h-20V118.16h42.31v4.29l-20,19h20v10.56h-42.31Z"/><path class="cls-1" d="M1333.77,159.29V191h-11V180.31h-31.31V169.75h31.31V159.29Z"/><path class="cls-1" d="M1333.72,198.28v25h-9.2V208.84h-6.88v12.77h-9.36V208.84h-7.79v14.43h-9.08v-25Z"/><path class="cls-1" d="M1291.41,254.16l11.23-6.22v-6.55h-11.23V230.83h42.31v16.94c0,8.16-7,14.81-15.57,14.81a15.92,15.92,0,0,1-11.4-4.78l-15.34,8.53Zm20.82-12.77v6.55a6.07,6.07,0,0,0,12.12,0v-6.55Z"/><path class="cls-1" d="M1333.72,271.53v10.56h-31.14v14.48h-11.17v-25Z"/><path class="cls-1" d="M1333.72,304.08v10.56h-42.31V304.08Z"/><path class="cls-1" d="M1291.41,352.29l20-19h-20V322.74h42.31V327l-20,19h20v10.56h-42.31Z"/><path class="cls-1" d="M1333.72,403.61l-19.35-18.34-23,21.77V392.13l15-14.31-2.71-2.53h-12.3V364.73h42.31v10.56h-14.27l14.27,13.52Z"/><path class="cls-1" d="M1333.72,410.74v25h-9.2V421.31h-6.88v12.76h-9.36V421.31h-7.79v14.42h-9.08v-25Z"/><path class="cls-1" d="M1333.72,443.29V458.2c0,11.1-9.48,20.11-21.16,20.11s-21.15-9-21.15-20.11V443.29Zm-31.25,10.51v4.45a10,10,0,0,0,20,0V453.8Z"/></g><g id="Interlinked4"><path class="cls-1" d="M87.24,946.94H98.35v42.3H87.24Z"/><path class="cls-1" d="M137.94,989.24l-20-20v20H106.86v-42.3h4.52l20,20v-20h11.11v42.3Z"/><path class="cls-1" d="M150.13,946.88h33.33v11.06H172.24v31.3H161.13v-31.3h-11Z"/><path class="cls-1" d="M191.13,946.94h26.29v9.19H202.24V963h13.43v9.37H202.24v7.78h15.18v9.08H191.13Z"/><path class="cls-1" d="M249.91,989.24,243.36,978h-6.88v11.22H225.37v-42.3h17.82a15.53,15.53,0,0,1,10.55,27l9,15.34Zm-13.43-20.81h6.88a6.07,6.07,0,1,0,0-12.13h-6.88Z"/><path class="cls-1" d="M268.18,946.94h11.11v31.13h15.23v11.17H268.18Z"/><path class="cls-1" d="M302.42,946.94h11.11v42.3H302.42Z"/><path class="cls-1" d="M353.12,989.24l-20-20v20H322.05v-42.3h4.51l20,20v-20h11.11v42.3Z"/><path class="cls-1" d="M407.1,946.94l-19.29,19.35,22.9,23H395l-15.06-15L377.32,977v12.29H366.21v-42.3h11.11v14.27l14.22-14.27Z"/><path class="cls-1" d="M414.6,946.94h26.29v9.19H425.72V963h13.42v9.37H425.72v7.78h15.17v9.08H414.6Z"/><path class="cls-1" d="M448.84,946.94h15.68a21.15,21.15,0,1,1,0,42.3H448.84Zm11.06,31.25h4.68a10,10,0,1,0,0-20H459.9Z"/><path class="cls-1" d="M1287.12,99.5v10.56h-42.3V99.5Z"/><path class="cls-1" d="M1244.82,147.71l20-19h-20V118.16h42.3v4.29l-20,19h20v10.56h-42.3Z"/><path class="cls-1" d="M1287.18,159.29V191h-11.06V180.31h-31.3V169.75h31.3V159.29Z"/><path class="cls-1" d="M1287.12,198.28v25h-9.2V208.84H1271v12.77h-9.36V208.84h-7.78v14.43h-9.08v-25Z"/><path class="cls-1" d="M1244.82,254.16l11.22-6.22v-6.55h-11.22V230.83h42.3v16.94c0,8.16-7,14.81-15.57,14.81a15.9,15.9,0,0,1-11.39-4.78l-15.34,8.53Zm20.81-12.77v6.55a6.07,6.07,0,0,0,12.13,0v-6.55Z"/><path class="cls-1" d="M1287.12,271.53v10.56H1256v14.48h-11.16v-25Z"/><path class="cls-1" d="M1287.12,304.08v10.56h-42.3V304.08Z"/><path class="cls-1" d="M1244.82,352.29l20-19h-20V322.74h42.3V327l-20,19h20v10.56h-42.3Z"/><path class="cls-1" d="M1287.12,403.61l-19.35-18.34-23,21.77V392.13l15-14.31-2.71-2.53h-12.29V364.73h42.3v10.56h-14.27l14.27,13.52Z"/><path class="cls-1" d="M1287.12,410.74v25h-9.2V421.31H1271v12.76h-9.36V421.31h-7.78v14.42h-9.08v-25Z"/><path class="cls-1" d="M1287.12,443.29V458.2c0,11.1-9.48,20.11-21.15,20.11s-21.15-9-21.15-20.11V443.29Zm-31.25,10.51v4.45a10,10,0,0,0,20,0V453.8Z"/></g><g id="Within1"><path class="cls-1" d="M1220,371.15,1211.1,367v-4.73l25-11.53V358l-15.3,7.06,10.4,4.76v2.77l-10.4,4.77,15.3,7.09v7.2l-25-11.56v-4.73Z"/><path class="cls-1" d="M1236.09,394.46V401h-25v-6.57Z"/><path class="cls-1" d="M1236.12,405.53v19.7h-6.53v-6.64H1211.1V412h18.49v-6.5Z"/><path class="cls-1" d="M1236.09,436.34h-8.9v7.92h8.9v6.57h-25v-6.57h9.53v-7.92h-9.53v-6.57h25Z"/><path class="cls-1" d="M1236.09,455.84v6.57h-25v-6.57Z"/><path class="cls-1" d="M1211.1,485.8,1222.93,474H1211.1v-6.57h25v2.67l-11.8,11.83h11.8v6.56h-25Z"/><path class="cls-1" d="M1227.82,524.64a5.8,5.8,0,0,0,1.64-4.19,5.87,5.87,0,1,0-10.07,4.19l-4.59,4.67a12.49,12.49,0,1,1,21.29-8.86,12.36,12.36,0,0,1-3.63,8.79Z"/><path class="cls-1" d="M1236.09,534.32v15.53h-5.43v-9h-4.07v7.92h-5.53v-7.92h-4.6v9h-5.36V534.32Z"/><path class="cls-1" d="M1236.09,554.56v6.56H1217.7v9h-6.6V554.56Z"/><path class="cls-1" d="M1236.09,574.83v6.56H1217.7v9h-6.6V574.83Z"/><path class="cls-1" d="M1228.42,604.29a1.91,1.91,0,0,0,1.9-1.9,1.88,1.88,0,0,0-1.9-1.86,1.86,1.86,0,0,0-1.86,1.86,7.73,7.73,0,1,1-7.7-7.69v5.83a1.87,1.87,0,0,0-1.9,1.86,1.89,1.89,0,0,0,1.87,1.9,1.92,1.92,0,0,0,1.9-1.9,7.68,7.68,0,1,1,7.69,7.7Z"/><path class="cls-1" d="M1236.09,629.74v6.56h-25v-6.56Z"/><path class="cls-1" d="M1211.1,659.7l11.83-11.8H1211.1v-6.56h25V644l-11.8,11.83h11.8v6.57h-25Z"/><path class="cls-1" d="M1236.12,666.91V686.6h-6.53V680H1211.1v-6.56h18.49v-6.5Z"/><path class="cls-1" d="M1236.09,691.15v15.52h-5.43v-9h-4.07v7.93h-5.53v-7.93h-4.6v9h-5.36V691.15Z"/><path class="cls-1" d="M1211.1,725.88l6.63-3.87V718h-6.63v-6.57h25v10.53a9.17,9.17,0,0,1-15.93,6.23l-9.06,5.3Zm12.29-7.93V722a3.59,3.59,0,1,0,7.17,0V718Z"/><path class="cls-1" d="M1236.09,736.69v6.56H1217.7v9h-6.6V736.69Z"/><path class="cls-1" d="M1236.09,756.92v6.57h-25v-6.57Z"/><path class="cls-1" d="M1211.1,786.89l11.83-11.8H1211.1v-6.56h25v2.66L1224.29,783h11.8v6.56h-25Z"/><path class="cls-1" d="M1236.09,818.79l-11.43-11.4-13.56,13.53v-9.26l8.86-8.9-1.6-1.56h-7.26v-6.57h25v6.57h-8.43l8.43,8.39Z"/><path class="cls-1" d="M1236.09,823.23v15.53h-5.43v-9h-4.07v7.93h-5.53V829.8h-4.6v9h-5.36V823.23Z"/><path class="cls-1" d="M1236.09,843.47v9.26a12.5,12.5,0,1,1-25,0v-9.26ZM1217.56,850v2.77a5.92,5.92,0,1,0,11.83,0V850Z"/></g><g id="Within2"><path class="cls-1" d="M1187.4,371.15l-8.9-4.13v-4.73l25-11.53V358L1188.2,365l10.4,4.76v2.77l-10.4,4.77,15.3,7.09v7.2l-25-11.56v-4.73Z"/><path class="cls-1" d="M1203.5,394.46V401h-25v-6.57Z"/><path class="cls-1" d="M1203.53,405.53v19.7H1197v-6.64h-18.5V412H1197v-6.5Z"/><path class="cls-1" d="M1203.5,436.34h-8.9v7.92h8.9v6.57h-25v-6.57H1188v-7.92h-9.53v-6.57h25Z"/><path class="cls-1" d="M1203.5,455.84v6.57h-25v-6.57Z"/><path class="cls-1" d="M1178.5,485.8,1190.33,474H1178.5v-6.57h25v2.67l-11.8,11.83h11.8v6.56h-25Z"/><path class="cls-1" d="M1195.23,524.64a5.83,5.83,0,0,0,1.63-4.19,5.86,5.86,0,1,0-10.06,4.19l-4.6,4.67a12.49,12.49,0,1,1,21.3-8.86,12.33,12.33,0,0,1-3.64,8.79Z"/><path class="cls-1" d="M1203.5,534.32v15.53h-5.44v-9H1194v7.92h-5.53v-7.92h-4.6v9h-5.37V534.32Z"/><path class="cls-1" d="M1203.5,554.56v6.56h-18.4v9h-6.6V554.56Z"/><path class="cls-1" d="M1203.5,574.83v6.56h-18.4v9h-6.6V574.83Z"/><path class="cls-1" d="M1195.83,604.29a1.92,1.92,0,0,0,1.9-1.9,1.89,1.89,0,0,0-1.9-1.86,1.86,1.86,0,0,0-1.86,1.86,7.74,7.74,0,1,1-7.7-7.69v5.83a1.87,1.87,0,0,0-1.9,1.86,1.88,1.88,0,0,0,1.86,1.9,1.91,1.91,0,0,0,1.9-1.9,7.69,7.69,0,1,1,7.7,7.7Z"/><path class="cls-1" d="M1203.5,629.74v6.56h-25v-6.56Z"/><path class="cls-1" d="M1178.5,659.7l11.83-11.8H1178.5v-6.56h25V644l-11.8,11.83h11.8v6.57h-25Z"/><path class="cls-1" d="M1203.53,666.91V686.6H1197V680h-18.5v-6.56H1197v-6.5Z"/><path class="cls-1" d="M1203.5,691.15v15.52h-5.44v-9H1194v7.93h-5.53v-7.93h-4.6v9h-5.37V691.15Z"/><path class="cls-1" d="M1178.5,725.88l6.64-3.87V718h-6.64v-6.57h25v10.53a9.17,9.17,0,0,1-15.93,6.23l-9.07,5.3Zm12.3-7.93V722a3.58,3.58,0,1,0,7.16,0V718Z"/><path class="cls-1" d="M1203.5,736.69v6.56h-18.4v9h-6.6V736.69Z"/><path class="cls-1" d="M1203.5,756.92v6.57h-25v-6.57Z"/><path class="cls-1" d="M1178.5,786.89l11.83-11.8H1178.5v-6.56h25v2.66L1191.7,783h11.8v6.56h-25Z"/><path class="cls-1" d="M1203.5,818.79l-11.43-11.4-13.57,13.53v-9.26l8.87-8.9-1.6-1.56h-7.27v-6.57h25v6.57h-8.43l8.43,8.39Z"/><path class="cls-1" d="M1203.5,823.23v15.53h-5.44v-9H1194v7.93h-5.53V829.8h-4.6v9h-5.37V823.23Z"/><path class="cls-1" d="M1203.5,843.47v9.26a12.5,12.5,0,0,1-25,0v-9.26ZM1185,850v2.77a5.92,5.92,0,1,0,11.83,0V850Z"/></g><g id="Within3"><path class="cls-1" d="M1153.67,371.15l-8.89-4.13v-4.73l25-11.53V358L1154.48,365l10.39,4.76v2.77l-10.39,4.77,15.29,7.09v7.2l-25-11.56v-4.73Z"/><path class="cls-1" d="M1169.77,394.46V401h-25v-6.57Z"/><path class="cls-1" d="M1169.8,405.53v19.7h-6.53v-6.64h-18.49V412h18.49v-6.5Z"/><path class="cls-1" d="M1169.77,436.34h-8.9v7.92h8.9v6.57h-25v-6.57h9.53v-7.92h-9.53v-6.57h25Z"/><path class="cls-1" d="M1169.77,455.84v6.57h-25v-6.57Z"/><path class="cls-1" d="M1144.78,485.8,1156.61,474h-11.83v-6.57h25v2.67L1158,481.94h11.8v6.56h-25Z"/><path class="cls-1" d="M1161.5,524.64a5.8,5.8,0,0,0,1.64-4.19,5.87,5.87,0,1,0-10.06,4.19l-4.6,4.67a12.49,12.49,0,1,1,21.29-8.86,12.36,12.36,0,0,1-3.63,8.79Z"/><path class="cls-1" d="M1169.77,534.32v15.53h-5.43v-9h-4.07v7.92h-5.53v-7.92h-4.6v9h-5.36V534.32Z"/><path class="cls-1" d="M1169.77,554.56v6.56h-18.39v9h-6.6V554.56Z"/><path class="cls-1" d="M1169.77,574.83v6.56h-18.39v9h-6.6V574.83Z"/><path class="cls-1" d="M1162.1,604.29a1.92,1.92,0,0,0,1.91-1.9,1.89,1.89,0,0,0-1.91-1.86,1.86,1.86,0,0,0-1.86,1.86,7.73,7.73,0,1,1-7.7-7.69v5.83a1.87,1.87,0,0,0-1.9,1.86,1.89,1.89,0,0,0,1.87,1.9,1.92,1.92,0,0,0,1.9-1.9,7.68,7.68,0,1,1,7.69,7.7Z"/><path class="cls-1" d="M1169.77,629.74v6.56h-25v-6.56Z"/><path class="cls-1" d="M1144.78,659.7l11.83-11.8h-11.83v-6.56h25V644L1158,655.83h11.8v6.57h-25Z"/><path class="cls-1" d="M1169.8,666.91V686.6h-6.53V680h-18.49v-6.56h18.49v-6.5Z"/><path class="cls-1" d="M1169.77,691.15v15.52h-5.43v-9h-4.07v7.93h-5.53v-7.93h-4.6v9h-5.36V691.15Z"/><path class="cls-1" d="M1144.78,725.88l6.63-3.87V718h-6.63v-6.57h25v10.53a9.17,9.17,0,0,1-15.93,6.23l-9.06,5.3Zm12.29-7.93V722a3.59,3.59,0,1,0,7.17,0V718Z"/><path class="cls-1" d="M1169.77,736.69v6.56h-18.39v9h-6.6V736.69Z"/><path class="cls-1" d="M1169.77,756.92v6.57h-25v-6.57Z"/><path class="cls-1" d="M1144.78,786.89l11.83-11.8h-11.83v-6.56h25v2.66L1158,783h11.8v6.56h-25Z"/><path class="cls-1" d="M1169.77,818.79l-11.43-11.4-13.56,13.53v-9.26l8.86-8.9-1.6-1.56h-7.26v-6.57h25v6.57h-8.43l8.43,8.39Z"/><path class="cls-1" d="M1169.77,823.23v15.53h-5.43v-9h-4.07v7.93h-5.53V829.8h-4.6v9h-5.36V823.23Z"/><path class="cls-1" d="M1169.77,843.47v9.26a12.5,12.5,0,1,1-25,0v-9.26ZM1151.24,850v2.77a5.92,5.92,0,1,0,11.83,0V850Z"/></g><g id="Within4"><path class="cls-1" d="M1119.18,371.15l-8.9-4.13v-4.73l25-11.53V358L1120,365l10.39,4.76v2.77L1120,377.32l15.29,7.09v7.2l-25-11.56v-4.73Z"/><path class="cls-1" d="M1135.27,394.46V401h-25v-6.57Z"/><path class="cls-1" d="M1135.3,405.53v19.7h-6.53v-6.64h-18.49V412h18.49v-6.5Z"/><path class="cls-1" d="M1135.27,436.34h-8.9v7.92h8.9v6.57h-25v-6.57h9.53v-7.92h-9.53v-6.57h25Z"/><path class="cls-1" d="M1135.27,455.84v6.57h-25v-6.57Z"/><path class="cls-1" d="M1110.28,485.8,1122.11,474h-11.83v-6.57h25v2.67l-11.79,11.83h11.79v6.56h-25Z"/><path class="cls-1" d="M1127,524.64a5.83,5.83,0,0,0,1.63-4.19,5.87,5.87,0,1,0-10.06,4.19l-4.6,4.67a12.49,12.49,0,1,1,21.29-8.86,12.36,12.36,0,0,1-3.63,8.79Z"/><path class="cls-1" d="M1135.27,534.32v15.53h-5.43v-9h-4.07v7.92h-5.53v-7.92h-4.59v9h-5.37V534.32Z"/><path class="cls-1" d="M1135.27,554.56v6.56h-18.39v9h-6.6V554.56Z"/><path class="cls-1" d="M1135.27,574.83v6.56h-18.39v9h-6.6V574.83Z"/><path class="cls-1" d="M1127.61,604.29a1.92,1.92,0,0,0,1.9-1.9,1.89,1.89,0,0,0-1.9-1.86,1.86,1.86,0,0,0-1.87,1.86,7.73,7.73,0,1,1-7.7-7.69v5.83a1.87,1.87,0,0,0-1.9,1.86,1.89,1.89,0,0,0,1.87,1.9,1.92,1.92,0,0,0,1.9-1.9,7.68,7.68,0,1,1,7.7,7.7Z"/><path class="cls-1" d="M1135.27,629.74v6.56h-25v-6.56Z"/><path class="cls-1" d="M1110.28,659.7l11.83-11.8h-11.83v-6.56h25V644l-11.79,11.83h11.79v6.57h-25Z"/><path class="cls-1" d="M1135.3,666.91V686.6h-6.53V680h-18.49v-6.56h18.49v-6.5Z"/><path class="cls-1" d="M1135.27,691.15v15.52h-5.43v-9h-4.07v7.93h-5.53v-7.93h-4.59v9h-5.37V691.15Z"/><path class="cls-1" d="M1110.28,725.88l6.63-3.87V718h-6.63v-6.57h25v10.53a9.17,9.17,0,0,1-15.93,6.23l-9.06,5.3Zm12.3-7.93V722a3.58,3.58,0,1,0,7.16,0V718Z"/><path class="cls-1" d="M1135.27,736.69v6.56h-18.39v9h-6.6V736.69Z"/><path class="cls-1" d="M1135.27,756.92v6.57h-25v-6.57Z"/><path class="cls-1" d="M1110.28,786.89l11.83-11.8h-11.83v-6.56h25v2.66L1123.48,783h11.79v6.56h-25Z"/><path class="cls-1" d="M1135.27,818.79l-11.43-11.4-13.56,13.53v-9.26l8.86-8.9-1.6-1.56h-7.26v-6.57h25v6.57h-8.43l8.43,8.39Z"/><path class="cls-1" d="M1135.27,823.23v15.53h-5.43v-9h-4.07v7.93h-5.53V829.8h-4.59v9h-5.37V823.23Z"/><path class="cls-1" d="M1135.27,843.47v9.26a12.5,12.5,0,1,1-25,0v-9.26ZM1116.74,850v2.77a5.92,5.92,0,1,0,11.83,0V850Z"/></g><g id="Dramatic_music" data-name="Dramatic music"><path class="cls-1" d="M287.1,94.29v22a29.63,29.63,0,1,1-59.25,0v-22Zm-43.93,15.49v6.55a14,14,0,1,0,28.05,0v-6.55Z"/><path class="cls-1" d="M227.85,191l15.72-9.17v-9.63H227.85V156.62H287.1v25a21.75,21.75,0,0,1-37.76,14.77l-21.49,12.56ZM257,172.19v9.63a8.49,8.49,0,1,0,17,0v-9.63Z"/><path class="cls-1" d="M227.85,214.21l59.25,27.65v7l-59.25,27.89V261.22l7.74-3.64V233.33l-7.74-3.56Zm20.85,25.2V251.5l13-6Z"/><path class="cls-1" d="M265.14,315.88l22,24.1v7H227.85V331.37h30.41l-14.14-15.49,14.06-15.56H227.85V284.68H287.1v7Z"/><path class="cls-1" d="M227.85,355l59.25,27.65v7l-59.25,27.89V402l7.74-3.63V374.11l-7.74-3.56Zm20.85,25.2v12.09l13-6Z"/><path class="cls-1" d="M287.18,420.24v46.69H271.69V451.21H227.85V435.65h43.84V420.24Z"/><path class="cls-1" d="M287.1,477.6v15.56H227.85V477.6Z"/><path class="cls-1" d="M267.51,543.24a13.86,13.86,0,0,0,3.87-10,13.91,13.91,0,1,0-23.86,10l-10.9,11.06a29.62,29.62,0,1,1,41.87-.15Z"/><path class="cls-1" d="M265.14,632.91l22,24.09v7H227.85V648.39h30.41l-14.14-15.48,14.06-15.57H227.85V601.7H287.1v7Z"/><path class="cls-1" d="M251.47,691.52a7.75,7.75,0,0,0,0,15.49H287.1v15.64H251.23a23.39,23.39,0,0,1,0-46.77H287.1v15.64Z"/><path class="cls-1" d="M268.93,756.3a4.55,4.55,0,0,0,4.5-4.5,4.48,4.48,0,0,0-4.5-4.42,4.42,4.42,0,0,0-4.43,4.42,18.33,18.33,0,1,1-18.25-18.25v13.83a4.43,4.43,0,0,0-4.5,4.42,4.49,4.49,0,0,0,4.43,4.5,4.55,4.55,0,0,0,4.5-4.5,18.21,18.21,0,1,1,18.25,18.25Z"/><path class="cls-1" d="M287.1,781v15.56H227.85V781Z"/><path class="cls-1" d="M267.51,846.68a13.88,13.88,0,0,0,3.87-10,13.91,13.91,0,1,0-23.86,10l-10.9,11.06a29.62,29.62,0,1,1,50.48-21,29.32,29.32,0,0,1-8.61,20.86Z"/></g><g id="Distinct"><path class="cls-1" d="M10.73,547.65h11.8c8.78,0,15.91,8.93,15.91,19.93s-7.13,19.94-15.91,19.94H10.73ZM19,577.21h3.53c4.15,0,7.55-4.26,7.55-9.47s-3.4-9.41-7.55-9.41H19Z"/><path class="cls-1" d="M44.18,547.65h8.36v39.87H44.18Z"/><path class="cls-1" d="M70.67,559.88c0-1.65-1.11-3-2.42-3s-2.38,1.39-2.38,3a2.72,2.72,0,0,0,2.38,3,9.25,9.25,0,0,1,7.68,4.73,14.37,14.37,0,0,1,2.12,7.71c0,6.81-4.37,12.23-9.8,12.23s-9.8-5.37-9.8-12.39h7.42c0,1.7,1.06,3,2.38,3a2.76,2.76,0,0,0,2.42-3c0-1.65-1.11-3-2.42-3-5.43,0-9.76-5.43-9.76-12.23s4.33-12.28,9.76-12.28,9.8,5.42,9.8,12.23Z"/><path class="cls-1" d="M83.32,547.59H108.4V558H100v29.51H91.6V558H83.32Z"/><path class="cls-1" d="M114.14,547.65h8.36v39.87h-8.36Z"/><path class="cls-1" d="M152.29,587.52l-15-18.87v18.87h-8.36V547.65h3.4l15.06,18.82V547.65h8.36v39.87Z"/><path class="cls-1" d="M180.52,560.83a6.68,6.68,0,0,0-5.34-2.6c-4.33,0-7.47,3.93-7.47,9.35s3.14,9.36,7.47,9.36a6.6,6.6,0,0,0,5.34-2.66l5.94,7.34a14.52,14.52,0,0,1-11.28,5.9c-8.78,0-15.91-8.93-15.91-19.94s7.13-19.93,15.91-19.93a14.36,14.36,0,0,1,11.2,5.79Z"/><path class="cls-1" d="M191.74,547.59h25.08V558h-8.45v29.51H200V558h-8.28Z"/></g><g id="Distinct2"><path class="cls-1" d="M10.73,714.29h11.8c8.78,0,15.91,8.93,15.91,19.94s-7.13,19.94-15.91,19.94H10.73ZM19,743.85h3.53c4.15,0,7.55-4.25,7.55-9.46S26.72,725,22.57,725H19Z"/><path class="cls-1" d="M44.18,714.29h8.36v39.88H44.18Z"/><path class="cls-1" d="M70.67,726.52c0-1.65-1.11-3-2.42-3s-2.38,1.38-2.38,3,1.06,3,2.38,3a9.25,9.25,0,0,1,7.68,4.73,14.34,14.34,0,0,1,2.12,7.71c0,6.8-4.37,12.23-9.8,12.23s-9.8-5.37-9.8-12.39h7.42c0,1.7,1.06,3,2.38,3a2.76,2.76,0,0,0,2.42-3c0-1.65-1.11-3-2.42-3-5.43,0-9.76-5.42-9.76-12.23s4.33-12.28,9.76-12.28,9.8,5.43,9.8,12.23Z"/><path class="cls-1" d="M83.32,714.24H108.4v10.42H100v29.51H91.6V724.66H83.32Z"/><path class="cls-1" d="M114.14,714.29h8.36v39.88h-8.36Z"/><path class="cls-1" d="M152.29,754.17l-15-18.88v18.88h-8.36V714.29h3.4l15.06,18.82V714.29h8.36v39.88Z"/><path class="cls-1" d="M180.52,727.48a6.69,6.69,0,0,0-5.34-2.61c-4.33,0-7.47,3.94-7.47,9.36s3.14,9.36,7.47,9.36a6.6,6.6,0,0,0,5.34-2.66l5.94,7.34a14.55,14.55,0,0,1-11.28,5.9c-8.78,0-15.91-8.93-15.91-19.94s7.13-19.94,15.91-19.94a14.34,14.34,0,0,1,11.2,5.8Z"/><path class="cls-1" d="M191.74,714.24h25.08v10.42h-8.45v29.51H200V724.66h-8.28Z"/></g><g id="High_beep1" data-name="High beep1"><path class="cls-1" d="M1095.91,110.47h-19.74v17.31h19.74V142.1h-55.45V127.78h21.15V110.47h-21.15V96.15h55.45Z"/><path class="cls-1" d="M1095.91,153v14.32h-55.45V153Z"/><path class="cls-1" d="M1070.26,232h-2.07a27.5,27.5,0,0,1-27.73-27.26c0-15.05,12.42-27.19,27.73-27.19s27.72,12.14,27.72,27.19a27,27,0,0,1-8.06,19.19l-10.2-10.1a13.06,13.06,0,1,0-22.62-9.09,12.79,12.79,0,0,0,5.47,10.54V204.69h9.76Z"/><path class="cls-1" d="M1095.91,254.13h-19.74v17.3h19.74v14.32h-55.45V271.43h21.15v-17.3h-21.15V239.8h55.45Z"/><path class="cls-1" d="M1040.46,329.44h55.45V353.5c0,8.73-7.61,16.14-16.49,16.14a16.41,16.41,0,0,1-10-3.49,16.61,16.61,0,0,1-12.71,6.18,16.37,16.37,0,0,1-16.27-16Zm33.79,21.23a4.81,4.81,0,0,0,9.61,0v-6.91h-9.61Zm-21.81,2.69a4.75,4.75,0,0,0,4.8,4.72,4.85,4.85,0,0,0,4.81-4.72v-9.6h-9.61Z"/><path class="cls-1" d="M1095.91,380.91v33.88h-12.05V395.23h-9v17.31h-12.27V395.23h-10.2v19.56h-11.91V380.91Z"/><path class="cls-1" d="M1095.91,425v33.88h-12.05V439.36h-9v17.3h-12.27v-17.3h-10.2v19.56h-11.91V425Z"/><path class="cls-1" d="M1095.91,469.17v33.88h-12.05V483.49h-9v17.3h-12.27v-17.3h-10.2v19.56h-11.91V469.17Z"/><path class="cls-1" d="M1095.91,513.3v33.87h-12.05V527.62h-9v17.3h-12.27v-17.3h-10.2v19.55h-11.91V513.3Z"/><path class="cls-1" d="M1095.91,557.42V591.3h-12.05V571.75h-9v17.3h-12.27v-17.3h-10.2V591.3h-11.91V557.42Z"/><path class="cls-1" d="M1095.91,601.55v33.88h-12.05V615.87h-9v17.3h-12.27v-17.3h-10.2v19.56h-11.91V601.55Z"/><path class="cls-1" d="M1095.91,645.68v33.88h-12.05V660h-9v17.3h-12.27V660h-10.2v19.56h-11.91V645.68Z"/><path class="cls-1" d="M1095.91,689.81v33.87h-12.05V704.13h-9v17.3h-12.27v-17.3h-10.2v19.55h-11.91V689.81Z"/><path class="cls-1" d="M1095.91,733.94v33.87h-12.05V748.26h-9v17.3h-12.27v-17.3h-10.2v19.55h-11.91V733.94Z"/><path class="cls-1" d="M1095.91,778.06v33.88h-12.05V792.39h-9v17.3h-12.27v-17.3h-10.2v19.55h-11.91V778.06Z"/><path class="cls-1" d="M1095.91,822.19v23a20.28,20.28,0,0,1-20.4,20.07c-11.17,0-20.34-8.94-20.34-19.77v-9h-14.71V822.19Zm-28.17,14.32v8.87a8,8,0,0,0,15.9,0v-8.87Z"/></g><g id="dreadfully_distinct" data-name="dreadfully distinct"><path class="cls-1" d="M10.21,874.1H20.9c8,0,14.42,6.07,14.42,13.56s-6.46,13.57-14.42,13.57H10.21Zm7.54,20.11h3.19a6.43,6.43,0,1,0,0-12.84H17.75Z"/><path class="cls-1" d="M57.29,901.23,52.82,894H48.14v7.2H40.56V874.1H52.71c5.84,0,10.61,4.48,10.61,10a9.73,9.73,0,0,1-3.42,7.31L66,901.23Zm-9.15-13.35h4.68a3.9,3.9,0,1,0,0-7.78H48.14Z"/><path class="cls-1" d="M69.76,874.1H87.67V880H77.33v4.42h9.15v6H77.33v5H87.67v5.82H69.76Z"/><path class="cls-1" d="M91.18,901.23l13.46-27.13h3.42l13.57,27.13h-7.57l-1.77-3.54H100.48l-1.73,3.54Zm12.26-9.55h5.89l-2.92-6Z"/><path class="cls-1" d="M125.49,874.1h10.69c8,0,14.41,6.07,14.41,13.56s-6.45,13.57-14.41,13.57H125.49Zm7.54,20h3.19a6.43,6.43,0,1,0,0-12.84H133Z"/><path class="cls-1" d="M155.84,874.1h18.07V880h-10.5v4.41h9.27v6h-9.27v10.81h-7.57Z"/><path class="cls-1" d="M186.91,890.42a3.78,3.78,0,0,0,7.54,0V874.1h7.61v16.42c0,6-5.11,10.71-11.38,10.71s-11.38-4.74-11.38-10.71V874.1h7.61Z"/><path class="cls-1" d="M207.84,874.1h7.58v20H225.8v7.16h-18Z"/><path class="cls-1" d="M231.23,874.1h7.57v20h10.38v7.16h-18Z"/><path class="cls-1" d="M268.19,891.25v10h-7.5v-10L250.16,874.1h8.72l5.54,9,5.57-9h8.73Z"/><path class="cls-1" d="M299.31,874.1H310c8,0,14.41,6.07,14.41,13.56S318,901.23,310,901.23H299.31Zm7.53,20.11H310a6.43,6.43,0,1,0,0-12.84h-3.2Z"/><path class="cls-1" d="M329.62,874.1h7.57v27.13h-7.57Z"/><path class="cls-1" d="M353.61,882.42a2.16,2.16,0,0,0-2.19-2.07,2.12,2.12,0,0,0-2.15,2.07,2.08,2.08,0,0,0,2.15,2,9.06,9.06,0,0,1,7,3.22,8,8,0,0,1,1.92,5.25,8.9,8.9,0,0,1-17.76-.11h6.73a2.09,2.09,0,0,0,2.15,2.06,2.12,2.12,0,0,0,2.19-2,2.16,2.16,0,0,0-2.19-2.07,8.35,8.35,0,1,1,8.88-8.35Z"/><path class="cls-1" d="M365.08,874.06H387.8v7.09h-7.65v20.08h-7.57V881.15h-7.5Z"/><path class="cls-1" d="M393,874.1h7.57v27.13H393Z"/><path class="cls-1" d="M427.57,901.23,414,888.39v12.84h-7.58V874.1h3.08l13.65,12.8V874.1h7.57v27.13Z"/><path class="cls-1" d="M453.15,883.07a7,7,0,0,0-4.84-1.77c-3.92,0-6.77,2.67-6.77,6.36s2.85,6.37,6.77,6.37a6.8,6.8,0,0,0,4.84-1.81l5.39,5a14.92,14.92,0,0,1-10.23,4c-8,0-14.42-6.07-14.42-13.57s6.46-13.56,14.42-13.56A14.72,14.72,0,0,1,458.46,878Z"/><path class="cls-1" d="M463.32,874.06H486v7.09h-7.65v20.08h-7.57V881.15h-7.5Z"/></g><g id="dreadfully_distinct2" data-name="dreadfully distinct2"><path class="cls-1" d="M10.21,908.5H20.9c8,0,14.42,6.08,14.42,13.57s-6.46,13.57-14.42,13.57H10.21Zm7.54,20.12h3.19a6.44,6.44,0,1,0,0-12.85H17.75Z"/><path class="cls-1" d="M57.29,935.64l-4.47-7.2H48.14v7.2H40.56V908.5H52.71c5.84,0,10.61,4.49,10.61,10a9.73,9.73,0,0,1-3.42,7.31L66,935.64Zm-9.15-13.36h4.68a3.89,3.89,0,1,0,0-7.77H48.14Z"/><path class="cls-1" d="M69.76,908.5H87.67v5.9H77.33v4.41h9.15v6H77.33v5H87.67v5.83H69.76Z"/><path class="cls-1" d="M91.18,935.64l13.46-27.14h3.42l13.57,27.14h-7.57l-1.77-3.55H100.48l-1.73,3.55Zm12.26-9.56h5.89l-2.92-6Z"/><path class="cls-1" d="M125.49,908.5h10.69c8,0,14.41,6.08,14.41,13.57s-6.45,13.57-14.41,13.57H125.49Zm7.54,20h3.19a6.43,6.43,0,1,0,0-12.84H133Z"/><path class="cls-1" d="M155.84,908.5h18.07v5.86h-10.5v4.42h9.27v6h-9.27v10.82h-7.57Z"/><path class="cls-1" d="M186.91,924.82a3.78,3.78,0,0,0,7.54,0V908.5h7.61v16.43c0,6-5.11,10.71-11.38,10.71s-11.38-4.74-11.38-10.71V908.5h7.61Z"/><path class="cls-1" d="M207.84,908.5h7.58v20H225.8v7.17h-18Z"/><path class="cls-1" d="M231.23,908.5h7.57v20h10.38v7.17h-18Z"/><path class="cls-1" d="M268.19,925.65v10h-7.5v-10L250.16,908.5h8.72l5.54,9,5.57-9h8.73Z"/><path class="cls-1" d="M299.31,908.5H310c8,0,14.41,6.08,14.41,13.57S318,935.64,310,935.64H299.31Zm7.53,20.12H310a6.44,6.44,0,1,0,0-12.85h-3.2Z"/><path class="cls-1" d="M329.62,908.5h7.57v27.14h-7.57Z"/><path class="cls-1" d="M353.61,916.82a2.15,2.15,0,0,0-2.19-2.06,2.12,2.12,0,0,0-2.15,2.06,2.09,2.09,0,0,0,2.15,2,9,9,0,0,1,7,3.22,8,8,0,0,1,1.92,5.24,8.89,8.89,0,0,1-17.76-.11h6.73a2.1,2.1,0,0,0,2.15,2.07,2.13,2.13,0,0,0,2.19-2,2.15,2.15,0,0,0-2.19-2.06,8.36,8.36,0,1,1,8.88-8.36Z"/><path class="cls-1" d="M365.08,908.46H387.8v7.09h-7.65v20.09h-7.57V915.55h-7.5Z"/><path class="cls-1" d="M393,908.5h7.57v27.14H393Z"/><path class="cls-1" d="M427.57,935.64,414,922.79v12.85h-7.58V908.5h3.08l13.65,12.81V908.5h7.57v27.14Z"/><path class="cls-1" d="M453.15,917.47a7,7,0,0,0-4.84-1.77c-3.92,0-6.77,2.68-6.77,6.37s2.85,6.37,6.77,6.37a6.85,6.85,0,0,0,4.84-1.81l5.39,5a14.93,14.93,0,0,1-10.23,4c-8,0-14.42-6.08-14.42-13.57s6.46-13.57,14.42-13.57a14.72,14.72,0,0,1,10.15,3.94Z"/><path class="cls-1" d="M463.32,908.46H486v7.09h-7.65v20.09h-7.57V915.55h-7.5Z"/></g><g id="against_the_dark" data-name="against the dark"><path class="cls-1" d="M1146.53,11.18l26.31,10.57v2.68l-26.31,10.66v-6l3.44-1.39V18.48l-3.44-1.35Zm9.26,9.63v4.62l5.79-2.3Z"/><path class="cls-1" d="M1160.67,59.05h-1c-7.26,0-13.16-5.07-13.16-11.32s5.9-11.3,13.16-11.3,13.15,5,13.15,11.3a10.59,10.59,0,0,1-3.82,8l-4.84-4.2a5,5,0,0,0,1.75-3.77c0-2.84-2.63-5.35-6.24-5.35s-6.24,2.57-6.24,5.35a5.16,5.16,0,0,0,2.59,4.38V47.73h4.63Z"/><path class="cls-1" d="M1146.53,60.82l26.31,10.57v2.68l-26.31,10.66v-6l3.44-1.39V68.12l-3.44-1.35Zm9.26,9.63v4.62l5.79-2.3Z"/><path class="cls-1" d="M1172.84,87.74v5.94h-26.31V87.74Z"/><path class="cls-1" d="M1146.53,114.89,1159,104.2h-12.46v-6h26.31v2.41l-12.41,10.72h12.41v6h-26.31Z"/><path class="cls-1" d="M1164.77,130.24a1.9,1.9,0,0,0,2-1.72,1.88,1.88,0,0,0-2-1.69,1.84,1.84,0,0,0-2,1.69,6.68,6.68,0,0,1-3.12,5.47,9,9,0,0,1-5.09,1.51c-4.49,0-8.07-3.12-8.07-7s3.55-7,8.18-7v5.29a1.72,1.72,0,1,0,0,3.41,1.89,1.89,0,0,0,2-1.72c0-3.87,3.58-7,8.07-7s8.1,3.08,8.1,7-3.58,7-8.07,7Z"/><path class="cls-1" d="M1172.88,139.25v17.84H1166v-6h-19.47v-5.94H1166v-5.89Z"/><path class="cls-1" d="M1172.88,174.33v17.84H1166v-6h-19.47v-5.95H1166v-5.88Z"/><path class="cls-1" d="M1172.84,202.24h-9.36v7.19h9.36v5.95h-26.31v-5.95h10v-7.19h-10v-6h26.31Z"/><path class="cls-1" d="M1172.84,220V234h-5.71V225.9h-4.28v7.18H1157V225.9h-4.84V234h-5.65V220Z"/><path class="cls-1" d="M1172.84,251.88v8.4c0,6.25-5.89,11.32-13.15,11.32s-13.16-5.07-13.16-11.32v-8.4Zm-19.43,5.92v2.51c0,2.95,2.81,5.37,6.24,5.37s6.21-2.42,6.21-5.37V257.8Z"/><path class="cls-1" d="M1146.53,273.3l26.31,10.57v2.69l-26.31,10.66v-6l3.44-1.39v-9.27l-3.44-1.36Zm9.26,9.64v4.62l5.79-2.3Z"/><path class="cls-1" d="M1146.53,313.39l7-3.51V306.2h-7v-5.95h26.31v9.54c0,4.59-4.35,8.34-9.68,8.34a10.42,10.42,0,0,1-7.08-2.69l-9.55,4.8Zm13-7.19v3.68a3.81,3.81,0,0,0,7.54,0V306.2Z"/><path class="cls-1" d="M1172.84,345.08l-12-10.33L1146.53,347v-8.39l9.34-8.07-1.69-1.42h-7.65v-5.95h26.31v5.95H1164l8.87,7.61Z"/></g><g id="against_the_dark2" data-name="against the dark2"><path class="cls-1" d="M1110.28,11.18l26.31,10.57v2.68l-26.31,10.66v-6l3.44-1.39V18.48l-3.44-1.35Zm9.26,9.63v4.62l5.79-2.3Z"/><path class="cls-1" d="M1124.42,59.05h-1c-7.27,0-13.16-5.07-13.16-11.32s5.89-11.3,13.16-11.3,13.15,5,13.15,11.3a10.59,10.59,0,0,1-3.82,8l-4.84-4.2a5,5,0,0,0,1.75-3.77c0-2.84-2.63-5.35-6.24-5.35s-6.25,2.57-6.25,5.35a5.17,5.17,0,0,0,2.6,4.38V47.73h4.63Z"/><path class="cls-1" d="M1110.28,60.82l26.31,10.57v2.68l-26.31,10.66v-6l3.44-1.39V68.12l-3.44-1.35Zm9.26,9.63v4.62l5.79-2.3Z"/><path class="cls-1" d="M1136.59,87.74v5.94h-26.31V87.74Z"/><path class="cls-1" d="M1110.28,114.89l12.45-10.69h-12.45v-6h26.31v2.41l-12.42,10.72h12.42v6h-26.31Z"/><path class="cls-1" d="M1128.52,130.24a1.89,1.89,0,0,0,2-1.72,1.87,1.87,0,0,0-2-1.69,1.84,1.84,0,0,0-2,1.69,6.68,6.68,0,0,1-3.12,5.47,9,9,0,0,1-5.09,1.51c-4.49,0-8.07-3.12-8.07-7s3.54-7,8.17-7v5.29a1.72,1.72,0,1,0,0,3.41,1.89,1.89,0,0,0,2-1.72c0-3.87,3.58-7,8.07-7s8.1,3.08,8.1,7-3.58,7-8.07,7Z"/><path class="cls-1" d="M1136.62,139.25v17.84h-6.87v-6h-19.47v-5.94h19.47v-5.89Z"/><path class="cls-1" d="M1136.62,174.33v17.84h-6.87v-6h-19.47v-5.95h19.47v-5.88Z"/><path class="cls-1" d="M1136.59,202.24h-9.37v7.19h9.37v5.95h-26.31v-5.95h10v-7.19h-10v-6h26.31Z"/><path class="cls-1" d="M1136.59,220V234h-5.72V225.9h-4.28v7.18h-5.82V225.9h-4.84V234h-5.65V220Z"/><path class="cls-1" d="M1136.59,251.88v8.4c0,6.25-5.89,11.32-13.15,11.32s-13.16-5.07-13.16-11.32v-8.4Zm-19.43,5.92v2.51c0,2.95,2.8,5.37,6.24,5.37s6.21-2.42,6.21-5.37V257.8Z"/><path class="cls-1" d="M1110.28,273.3l26.31,10.57v2.69l-26.31,10.66v-6l3.44-1.39v-9.27l-3.44-1.36Zm9.26,9.64v4.62l5.79-2.3Z"/><path class="cls-1" d="M1110.28,313.39l7-3.51V306.2h-7v-5.95h26.31v9.54c0,4.59-4.35,8.34-9.68,8.34a10.45,10.45,0,0,1-7.09-2.69l-9.54,4.8Zm12.94-7.19v3.68a3.81,3.81,0,0,0,7.55,0V306.2Z"/><path class="cls-1" d="M1136.59,345.08l-12-10.33L1110.28,347v-8.39l9.33-8.07-1.68-1.42h-7.65v-5.95h26.31v5.95h-8.88l8.88,7.61Z"/></g><g id="one_stem" data-name="one stem"><path class="cls-1" d="M1219.7,31.13l-8.7-4.05V22.45l24.45-11.27v7l-15,6.91,10.16,4.66V32.5l-10.16,4.66,15,6.94v7L1211,39.83V35.2Z"/><path class="cls-1" d="M1235.45,53.93v6.43H1211V53.93Z"/><path class="cls-1" d="M1235.48,64.76V84h-6.39V77.54H1211V71.12h18.09V64.76Z"/><path class="cls-1" d="M1235.45,94.9h-8.71v7.76h8.71v6.42H1211v-6.42h9.32V94.9H1211V88.47h24.45Z"/><path class="cls-1" d="M1235.45,114v6.43H1211V114Z"/><path class="cls-1" d="M1211,143.29l11.57-11.54H1211v-6.42h24.45v2.61l-11.54,11.57h11.54v6.42H1211Z"/><path class="cls-1" d="M1235.45,177.25a12.23,12.23,0,1,1-12.26-12.19A12.26,12.26,0,0,1,1235.45,177.25Zm-6.39,0a5.84,5.84,0,1,0-5.84,5.84A5.83,5.83,0,0,0,1229.06,177.25Z"/><path class="cls-1" d="M1211,211.92l11.57-11.54H1211V194h24.45v2.61l-11.54,11.57h11.54v6.42H1211Z"/><path class="cls-1" d="M1235.45,219.5v15.19h-5.32v-8.77h-4v7.76h-5.41v-7.76h-4.5v8.77H1211V219.5Z"/><path class="cls-1" d="M1228,263a1.88,1.88,0,0,0,1.86-1.86,1.85,1.85,0,0,0-1.86-1.82,1.82,1.82,0,0,0-1.83,1.82,7.56,7.56,0,1,1-7.53-7.53v5.71a1.83,1.83,0,0,0-1.86,1.82,1.85,1.85,0,0,0,1.83,1.86,1.88,1.88,0,0,0,1.86-1.86,7.52,7.52,0,1,1,7.53,7.53Z"/><path class="cls-1" d="M1235.48,272.7V292h-6.39v-6.48H1211v-6.42h18.09V272.7Z"/><path class="cls-1" d="M1235.45,296.41V311.6h-5.32v-8.77h-4v7.76h-5.41v-7.76h-4.5v8.77H1211V296.41Z"/><path class="cls-1" d="M1226.39,329.08l9.06,9.95v2.9H1211v-6.46h12.55l-5.84-6.39,5.81-6.42H1211v-6.45h24.45v2.9Z"/></g><g id="one_stem2" data-name="one stem2"><path class="cls-1" d="M1187.48,31.13l-8.7-4.05V22.45l24.44-11.27v7l-15,6.91,10.17,4.66V32.5l-10.17,4.66,15,6.94v7l-24.44-11.31V35.2Z"/><path class="cls-1" d="M1203.22,53.93v6.43h-24.44V53.93Z"/><path class="cls-1" d="M1203.26,64.76V84h-6.39V77.54h-18.09V71.12h18.09V64.76Z"/><path class="cls-1" d="M1203.22,94.9h-8.7v7.76h8.7v6.42h-24.44v-6.42h9.32V94.9h-9.32V88.47h24.44Z"/><path class="cls-1" d="M1203.22,114v6.43h-24.44V114Z"/><path class="cls-1" d="M1178.78,143.29l11.57-11.54h-11.57v-6.42h24.44v2.61l-11.54,11.57h11.54v6.42h-24.44Z"/><path class="cls-1" d="M1203.22,177.25A12.22,12.22,0,1,1,1191,165.06,12.26,12.26,0,0,1,1203.22,177.25Zm-6.38,0a5.84,5.84,0,1,0-5.84,5.84A5.83,5.83,0,0,0,1196.84,177.25Z"/><path class="cls-1" d="M1178.78,211.92l11.57-11.54h-11.57V194h24.44v2.61l-11.54,11.57h11.54v6.42h-24.44Z"/><path class="cls-1" d="M1203.22,219.5v15.19h-5.31v-8.77h-4v7.76h-5.41v-7.76H1184v8.77h-5.24V219.5Z"/><path class="cls-1" d="M1195.73,263a1.87,1.87,0,0,0,1.85-1.86,1.84,1.84,0,0,0-1.85-1.82,1.82,1.82,0,0,0-1.83,1.82,7.56,7.56,0,1,1-7.53-7.53v5.71a1.83,1.83,0,0,0-1.86,1.82,1.85,1.85,0,0,0,1.83,1.86,1.88,1.88,0,0,0,1.86-1.86,7.51,7.51,0,1,1,7.53,7.53Z"/><path class="cls-1" d="M1203.26,272.7V292h-6.39v-6.48h-18.09v-6.42h18.09V272.7Z"/><path class="cls-1" d="M1203.22,296.41V311.6h-5.31v-8.77h-4v7.76h-5.41v-7.76H1184v8.77h-5.24V296.41Z"/><path class="cls-1" d="M1194.16,329.08l9.06,9.95v2.9h-24.44v-6.46h12.55l-5.84-6.39,5.8-6.42h-12.51v-6.45h24.44v2.9Z"/></g><g id="Stop"><path class="cls-1" d="M984.46,908.8a8.47,8.47,0,0,0-8.17-8.58c-4.44,0-8,3.91-8,8.58a8.21,8.21,0,0,0,8,8.41,32.44,32.44,0,0,1,25.94,13.39,35.58,35.58,0,0,1,7.17,21.8c0,19.25-14.76,34.59-33.11,34.59s-33.11-15.19-33.11-35h25.08a8.11,8.11,0,1,0,16.2.15,8.47,8.47,0,0,0-8.17-8.57c-18.35,0-33-15.34-33-34.59s14.62-34.73,33-34.73,33.11,15.34,33.11,34.59Z"/><path class="cls-1" d="M1027.22,874.06h84.72v29.47h-28.53V987h-28.24V903.53h-28Z"/><path class="cls-1" d="M1177.21,874.21c29.67,0,53.75,25.41,53.75,56.54S1206.88,987,1177.21,987s-53.61-25.12-53.61-56.24S1147.53,874.21,1177.21,874.21Zm0,29.47c-14,0-25.51,12-25.51,26.92,0,14.73,11.46,26.91,25.51,26.91s25.65-12.18,25.65-26.91C1202.86,915.71,1191.4,903.68,1177.21,903.68Z"/><path class="cls-1" d="M1250.67,874.21H1296c21.78,0,39.56,18.65,39.56,41.5,0,22.7-17.63,41.35-39,41.35h-17.63V987h-28.24Zm28.24,57.29h17.48c8.61,0,15.49-7.07,15.49-16.09s-6.88-16.24-15.49-16.24h-17.48Z"/></g><g id="Niet_nodig" data-name="Niet nodig"><path class="cls-1" d="M491.41,937h19.25C525,937,536.6,949.1,536.6,964S525,990.89,510.66,990.89H491.41ZM505,977h5.74a12.75,12.75,0,0,0,0-25.49H505Z"/><path class="cls-1" d="M540.5,990.89,564.72,937h6.16l24.42,53.85H581.67l-3.18-7H557.24l-3.11,7Zm22.07-19h10.59l-5.26-11.84Z"/><path class="cls-1" d="M632.36,990.89l-8-14.29h-8.44v14.29H602.25V937h21.87c10.52,0,19.1,8.9,19.1,19.81a20.11,20.11,0,0,1-6.16,14.51l11,19.53Zm-16.47-26.5h8.44a7.72,7.72,0,0,0,0-15.43h-8.44Z"/><path class="cls-1" d="M705,937,681.3,961.66l28.09,29.23H690.16l-18.48-19.1-3.25,3.44v15.66H654.8V937h13.63V955.2L685.87,937Z"/><path class="cls-1" d="M717.33,937h19.24c14.32,0,25.94,12.06,25.94,26.92s-11.62,26.93-25.94,26.93H717.33ZM730.89,977h5.75a12.75,12.75,0,0,0,0-25.49h-5.75Z"/><path class="cls-1" d="M766.41,990.89,790.63,937h6.16l24.42,53.85H807.59l-3.19-7H783.16l-3.11,7Zm22.08-19h10.58l-5.25-11.84Z"/><path class="cls-1" d="M858.27,990.89l-8-14.29H841.8v14.29H828.17V937H850c10.52,0,19.1,8.9,19.1,19.81A20.11,20.11,0,0,1,863,971.36l11,19.53Zm-16.47-26.5h8.44a7.72,7.72,0,0,0,0-15.43H841.8Z"/><path class="cls-1" d="M930.88,937l-23.67,24.62,28.09,29.23H916.07l-18.47-19.1-3.26,3.44v15.66H880.71V937h13.63V955.2L911.78,937Z"/><path class="cls-1" d="M1287.12,11.07V41.16h-9.2V23.79H1271V39.16h-9.36V23.79h-7.78V41.16h-9.08V11.07Z"/><path class="cls-1" d="M1287.12,50.27V68.22c0,13.36-9.48,24.21-21.15,24.21s-21.15-10.85-21.15-24.21V50.27Zm-31.25,12.65v5.36c0,6.33,4.51,11.5,10,11.5s10-5.17,10-11.5V62.92Z"/><path class="cls-1" d="M1333.72,11.07V41.16h-9.2V23.79h-6.88V39.16h-9.36V23.79h-7.79V41.16h-9.08V11.07Z"/><path class="cls-1" d="M1333.72,50.27V68.22c0,13.36-9.48,24.21-21.16,24.21s-21.15-10.85-21.15-24.21V50.27Zm-31.25,12.65v5.36c0,6.33,4.51,11.5,10,11.5s10-5.17,10-11.5V62.92Z"/><path class="cls-1" d="M29.37,987,24,976.36H18.34V987H9.21v-40H23.85c7,0,12.79,6.62,12.79,14.73a15.8,15.8,0,0,1-4.12,10.79L39.88,987Zm-11-19.71H24c2.78,0,5-2.51,5-5.71s-2.22-5.77-5-5.77H18.34Z"/><path class="cls-1" d="M78,946.94,62.13,965.25,80.94,987H68.06L55.69,972.78l-2.17,2.56V987H44.39v-40h9.13v13.51l11.67-13.51Z"/></g><g id="Dreadfully"><path class="cls-1" d="M10.73,436.53H19c6.19,0,11.22,8.93,11.22,19.94s-5,19.94-11.22,19.94H10.73Zm5.86,29.56h2.48c2.93,0,5.33-4.25,5.33-9.46s-2.4-9.41-5.33-9.41H16.59Z"/><path class="cls-1" d="M47.34,476.41l-3.47-10.58H40.23v10.58h-5.9V436.53h9.45c4.55,0,8.26,6.59,8.26,14.67a21.17,21.17,0,0,1-2.66,10.74l4.75,14.47Zm-7.11-19.62h3.64c1.8,0,3.23-2.5,3.23-5.69s-1.43-5.74-3.23-5.74H40.23Z"/><path class="cls-1" d="M57,436.53H71v8.67h-8v6.48h7.11v8.83H62.94v7.33h8v8.57H57Z"/><path class="cls-1" d="M73.71,476.41l10.46-39.88h2.66l10.56,39.88H91.5l-1.38-5.22H80.94l-1.34,5.22Zm9.54-14h4.57l-2.27-8.77Z"/><path class="cls-1" d="M100.39,436.53h8.32c6.19,0,11.21,8.93,11.21,19.94s-5,19.94-11.21,19.94h-8.32ZM106.26,466h2.48c2.93,0,5.32-4.26,5.32-9.47s-2.39-9.41-5.32-9.41h-2.48Z"/><path class="cls-1" d="M124,436.53h14.06v8.61h-8.17v6.49h7.21v8.88h-7.21v15.9H124Z"/><path class="cls-1" d="M148.17,460.51c0,2.87,1.32,5.21,2.93,5.21s2.93-2.34,2.93-5.21v-24H160v24.14c0,8.77-4,15.74-8.85,15.74s-8.85-7-8.85-15.74V436.53h5.92Z"/><path class="cls-1" d="M164.45,436.53h5.89v29.35h8.07v10.53h-14Z"/><path class="cls-1" d="M182.64,436.53h5.89v29.35h8.07v10.53h-14Z"/><path class="cls-1" d="M211.39,461.73v14.68h-5.84V461.73l-8.19-25.2h6.79l4.3,13.29,4.34-13.29h6.79Z"/></g><g id="Dreadfully2"><path class="cls-1" d="M10.73,492.06H19c6.19,0,11.22,8.93,11.22,19.94s-5,19.94-11.22,19.94H10.73Zm5.86,29.56h2.48c2.93,0,5.33-4.25,5.33-9.46s-2.4-9.41-5.33-9.41H16.59Z"/><path class="cls-1" d="M47.34,531.94l-3.47-10.58H40.23v10.58h-5.9V492.06h9.45c4.55,0,8.26,6.6,8.26,14.67a21.17,21.17,0,0,1-2.66,10.74l4.75,14.47Zm-7.11-19.62h3.64c1.8,0,3.23-2.5,3.23-5.69s-1.43-5.74-3.23-5.74H40.23Z"/><path class="cls-1" d="M57,492.06H71v8.67h-8v6.48h7.11V516H62.94v7.34h8v8.56H57Z"/><path class="cls-1" d="M73.71,531.94l10.46-39.88h2.66l10.56,39.88H91.5l-1.38-5.21H80.94l-1.34,5.21Zm9.54-14h4.57l-2.27-8.77Z"/><path class="cls-1" d="M100.39,492.06h8.32c6.19,0,11.21,8.93,11.21,19.94s-5,19.94-11.21,19.94h-8.32Zm5.87,29.46h2.48c2.93,0,5.32-4.26,5.32-9.47s-2.39-9.41-5.32-9.41h-2.48Z"/><path class="cls-1" d="M124,492.06h14.06v8.61h-8.17v6.49h7.21V516h-7.21v15.9H124Z"/><path class="cls-1" d="M148.17,516c0,2.87,1.32,5.21,2.93,5.21S154,518.91,154,516v-24H160V516.2c0,8.77-4,15.74-8.85,15.74s-8.85-7-8.85-15.74V492.06h5.92Z"/><path class="cls-1" d="M164.45,492.06h5.89v29.35h8.07v10.53h-14Z"/><path class="cls-1" d="M182.64,492.06h5.89v29.35h8.07v10.53h-14Z"/><path class="cls-1" d="M211.39,517.26v14.68h-5.84V517.26l-8.19-25.2h6.79l4.3,13.29,4.34-13.29h6.79Z"/></g><g id="Dreadfully3"><path class="cls-1" d="M10.73,603.18H19c6.19,0,11.22,8.93,11.22,19.94s-5,19.93-11.22,19.93H10.73Zm5.86,29.56h2.48c2.93,0,5.33-4.26,5.33-9.46s-2.4-9.41-5.33-9.41H16.59Z"/><path class="cls-1" d="M47.34,643.05l-3.47-10.58H40.23v10.58h-5.9V603.18h9.45c4.55,0,8.26,6.59,8.26,14.67a21.19,21.19,0,0,1-2.66,10.74l4.75,14.46Zm-7.11-19.62h3.64c1.8,0,3.23-2.5,3.23-5.69S45.67,612,43.87,612H40.23Z"/><path class="cls-1" d="M57,603.18H71v8.66h-8v6.49h7.11v8.83H62.94v7.33h8v8.56H57Z"/><path class="cls-1" d="M73.71,643.05l10.46-39.87h2.66l10.56,39.87H91.5l-1.38-5.21H80.94l-1.34,5.21Zm9.54-14h4.57l-2.27-8.77Z"/><path class="cls-1" d="M100.39,603.18h8.32c6.19,0,11.21,8.93,11.21,19.94s-5,19.93-11.21,19.93h-8.32Zm5.87,29.45h2.48c2.93,0,5.32-4.25,5.32-9.46s-2.39-9.41-5.32-9.41h-2.48Z"/><path class="cls-1" d="M124,603.18h14.06v8.61h-8.17v6.49h7.21v8.88h-7.21v15.89H124Z"/><path class="cls-1" d="M148.17,627.16c0,2.87,1.32,5.21,2.93,5.21S154,630,154,627.16v-24H160v24.14c0,8.77-4,15.73-8.85,15.73s-8.85-7-8.85-15.73V603.18h5.92Z"/><path class="cls-1" d="M164.45,603.18h5.89v29.35h8.07v10.52h-14Z"/><path class="cls-1" d="M182.64,603.18h5.89v29.35h8.07v10.52h-14Z"/><path class="cls-1" d="M211.39,628.38v14.67h-5.84V628.38l-8.19-25.2h6.79l4.3,13.29,4.34-13.29h6.79Z"/></g><g id="Dreadfully4"><path class="cls-1" d="M10.73,658.71H19c6.19,0,11.22,8.93,11.22,19.94s-5,19.93-11.22,19.93H10.73Zm5.86,29.56h2.48c2.93,0,5.33-4.25,5.33-9.46s-2.4-9.41-5.33-9.41H16.59Z"/><path class="cls-1" d="M47.34,698.58,43.87,688H40.23v10.58h-5.9V658.71h9.45c4.55,0,8.26,6.59,8.26,14.67a21.19,21.19,0,0,1-2.66,10.74l4.75,14.46ZM40.23,679h3.64c1.8,0,3.23-2.49,3.23-5.68s-1.43-5.74-3.23-5.74H40.23Z"/><path class="cls-1" d="M57,658.71H71v8.66h-8v6.49h7.11v8.83H62.94V690h8v8.56H57Z"/><path class="cls-1" d="M73.71,698.58l10.46-39.87h2.66l10.56,39.87H91.5l-1.38-5.2H80.94l-1.34,5.2Zm9.54-14h4.57l-2.27-8.77Z"/><path class="cls-1" d="M100.39,658.71h8.32c6.19,0,11.21,8.93,11.21,19.94s-5,19.93-11.21,19.93h-8.32Zm5.87,29.45h2.48c2.93,0,5.32-4.25,5.32-9.46s-2.39-9.41-5.32-9.41h-2.48Z"/><path class="cls-1" d="M124,658.71h14.06v8.61h-8.17v6.49h7.21v8.88h-7.21v15.89H124Z"/><path class="cls-1" d="M148.17,682.69c0,2.87,1.32,5.21,2.93,5.21s2.93-2.34,2.93-5.21v-24H160v24.14c0,8.77-4,15.73-8.85,15.73s-8.85-7-8.85-15.73V658.71h5.92Z"/><path class="cls-1" d="M164.45,658.71h5.89v29.35h8.07v10.52h-14Z"/><path class="cls-1" d="M182.64,658.71h5.89v29.35h8.07v10.52h-14Z"/><path class="cls-1" d="M211.39,683.91v14.67h-5.84V683.91l-8.19-25.2h6.79l4.3,13.29,4.34-13.29h6.79Z"/></g><g id="Dreadfully5"><path class="cls-1" d="M10.73,769.82H19c6.19,0,11.22,8.93,11.22,19.94S25.23,809.7,19,809.7H10.73Zm5.86,29.56h2.48c2.93,0,5.33-4.25,5.33-9.46s-2.4-9.41-5.33-9.41H16.59Z"/><path class="cls-1" d="M47.34,809.7l-3.47-10.58H40.23V809.7h-5.9V769.82h9.45c4.55,0,8.26,6.6,8.26,14.67a21.17,21.17,0,0,1-2.66,10.74l4.75,14.47Zm-7.11-19.62h3.64c1.8,0,3.23-2.5,3.23-5.69s-1.43-5.74-3.23-5.74H40.23Z"/><path class="cls-1" d="M57,769.82H71v8.67h-8V785h7.11v8.83H62.94v7.33h8v8.57H57Z"/><path class="cls-1" d="M73.71,809.7l10.46-39.88h2.66L97.39,809.7H91.5l-1.38-5.21H80.94L79.6,809.7Zm9.54-14h4.57l-2.27-8.77Z"/><path class="cls-1" d="M100.39,769.82h8.32c6.19,0,11.21,8.93,11.21,19.94s-5,19.94-11.21,19.94h-8.32Zm5.87,29.46h2.48c2.93,0,5.32-4.26,5.32-9.47s-2.39-9.41-5.32-9.41h-2.48Z"/><path class="cls-1" d="M124,769.82h14.06v8.61h-8.17v6.49h7.21v8.88h-7.21v15.9H124Z"/><path class="cls-1" d="M148.17,793.8c0,2.87,1.32,5.21,2.93,5.21s2.93-2.34,2.93-5.21v-24H160V794c0,8.77-4,15.74-8.85,15.74s-8.85-7-8.85-15.74V769.82h5.92Z"/><path class="cls-1" d="M164.45,769.82h5.89v29.35h8.07V809.7h-14Z"/><path class="cls-1" d="M182.64,769.82h5.89v29.35h8.07V809.7h-14Z"/><path class="cls-1" d="M211.39,795V809.7h-5.84V795l-8.19-25.2h6.79l4.3,13.29,4.34-13.29h6.79Z"/></g><g id="Dreadfully6"><path class="cls-1" d="M10.73,825.35H19c6.19,0,11.22,8.93,11.22,19.94s-5,19.94-11.22,19.94H10.73Zm5.86,29.56h2.48c2.93,0,5.33-4.25,5.33-9.46S22,836,19.07,836H16.59Z"/><path class="cls-1" d="M47.34,865.23l-3.47-10.58H40.23v10.58h-5.9V825.35h9.45C48.33,825.35,52,832,52,840a21.23,21.23,0,0,1-2.66,10.75l4.75,14.46Zm-7.11-19.62h3.64c1.8,0,3.23-2.5,3.23-5.69s-1.43-5.74-3.23-5.74H40.23Z"/><path class="cls-1" d="M57,825.35H71V834h-8v6.49h7.11v8.82H62.94v7.34h8v8.56H57Z"/><path class="cls-1" d="M73.71,865.23l10.46-39.88h2.66l10.56,39.88H91.5L90.12,860H80.94l-1.34,5.21Zm9.54-14h4.57l-2.27-8.77Z"/><path class="cls-1" d="M100.39,825.35h8.32c6.19,0,11.21,8.93,11.21,19.94s-5,19.94-11.21,19.94h-8.32Zm5.87,29.46h2.48c2.93,0,5.32-4.26,5.32-9.46s-2.39-9.42-5.32-9.42h-2.48Z"/><path class="cls-1" d="M124,825.35h14.06V834h-8.17v6.49h7.21v8.88h-7.21v15.9H124Z"/><path class="cls-1" d="M148.17,849.33c0,2.87,1.32,5.21,2.93,5.21s2.93-2.34,2.93-5.21v-24H160v24.14c0,8.77-4,15.74-8.85,15.74s-8.85-7-8.85-15.74V825.35h5.92Z"/><path class="cls-1" d="M164.45,825.35h5.89V854.7h8.07v10.53h-14Z"/><path class="cls-1" d="M182.64,825.35h5.89V854.7h8.07v10.53h-14Z"/><path class="cls-1" d="M211.39,850.55v14.68h-5.84V850.55l-8.19-25.2h6.79l4.3,13.29,4.34-13.29h6.79Z"/></g></svg>