<svg xmlns="http://www.w3.org/2000/svg" viewBox="0 0 1350 1000"><defs><style>.cls-1{fill:#f6f6f6;}</style></defs><g id="Buzzer1"><path class="cls-1" d="M12.28,82.87V11.07H44A21.67,21.67,0,0,1,65.22,32.42a21.05,21.05,0,0,1-4.6,12.93,21.39,21.39,0,0,1,8.14,16.46A21.38,21.38,0,0,1,47.7,82.87ZM40.23,39.12a6.22,6.22,0,1,0,0-12.44H31.14V39.12Zm3.54,28.24A6.21,6.21,0,0,0,50,61.14a6.34,6.34,0,0,0-6.23-6.22H31.14V67.36Z"/><path class="cls-1" d="M98.92,54.25a9.38,9.38,0,0,0,18.76,0V11.07h18.95V54.54a28.34,28.34,0,0,1-56.67,0V11.07h19Z"/><path class="cls-1" d="M178.76,64h27.76V82.87H146.11L176.65,30H147.93v-19H209.3Z"/><path class="cls-1" d="M246.73,64h27.76V82.87H214.08L244.62,30H215.9v-19h61.37Z"/><path class="cls-1" d="M314.7,64h27.76V82.87H282.05L312.59,30H283.87v-19h61.37Z"/><path class="cls-1" d="M354.9,11.07h44.62V26.68H373.76V38.36h22.79V54.25H373.76V67.46h25.76V82.87H354.9Z"/><path class="cls-1" d="M454.66,82.87,443.55,63.82H431.87V82.87H413V11.07h30.26a26.36,26.36,0,0,1,17.9,45.76l15.22,26ZM431.87,47.55h11.68a10.3,10.3,0,1,0,0-20.59H431.87Z"/><path class="cls-1" d="M527.32,82.87,516.21,63.82H504.53V82.87H485.67V11.07h30.26a26.36,26.36,0,0,1,17.9,45.76l15.22,26ZM504.53,47.55h11.68a10.3,10.3,0,1,0,0-20.59H504.53Z"/></g><g id="Tumm"><path class="cls-1" d="M1336.72,10.9V35.34h-24V27.11h-67.92V19h67.92V10.9Z"/><path class="cls-1" d="M1281.41,49.11c-6.61,0-12,1.82-12,4s5.39,4.06,12,4.06h55.19v8.19H1281c-20.19,0-36.22-5.51-36.22-12.25s16-12.24,36.22-12.24h55.56v8.19Z"/><path class="cls-1" d="M1302.58,87.94l34,12.62v3.68h-91.78V96.05h47.11L1270,87.94l21.78-8.14h-47V71.61h91.78v3.68Z"/><path class="cls-1" d="M1302.58,126.82l34,12.61v3.68h-91.78v-8.18h47.11l-21.9-8.11,21.78-8.15h-47v-8.19h91.78v3.68Z"/><path class="cls-1" d="M1302.58,165.7l34,12.61V182h-91.78V173.8h47.11l-21.9-8.1,21.78-8.15h-47v-8.19h91.78V153Z"/></g><g id="Siren"><path class="cls-1" d="M586.79,33.73a5.86,5.86,0,0,0-6-5.62A5.77,5.77,0,0,0,575,33.73a5.69,5.69,0,0,0,5.87,5.51A24.63,24.63,0,0,1,599.77,48,21.78,21.78,0,0,1,605,62.29C605,74.9,594.22,85,580.83,85s-24.18-10-24.18-23H575a5.71,5.71,0,0,0,5.87,5.61,5.78,5.78,0,0,0,6-5.52,5.86,5.86,0,0,0-6-5.61c-13.4,0-24.07-10-24.07-22.65s10.67-22.76,24.07-22.76S605,21.12,605,33.73Z"/><path class="cls-1" d="M619.55,11.07h20.61V85H619.55Z"/><path class="cls-1" d="M701.48,85l-12.13-19.6H676.58V85H656V11.07H689c15.91,0,28.89,12.22,28.89,27.19a26.47,26.47,0,0,1-9.32,19.9L725.24,85ZM676.58,48.6h12.77c6.27,0,11.3-4.63,11.3-10.54s-5-10.64-11.3-10.64H676.58Z"/><path class="cls-1" d="M735.39,11.07h48.77V27.13H756v12h24.9V55.5H756V69.09h28.15V85H735.39Z"/><path class="cls-1" d="M856.57,85l-37-35V85H798.91V11.07h8.37l37.16,34.87V11.07h20.61V85Z"/></g><g id="CellsBig2"><path class="cls-1" d="M941.53,35.56a21.24,21.24,0,0,0-14.16-4.84c-11.46,0-19.78,7.31-19.78,17.38s8.32,17.38,19.78,17.38c5.73,0,10.67-1.78,14.16-4.94l15.72,13.63a45.29,45.29,0,0,1-29.88,11c-23.26,0-42.13-16.59-42.13-37s18.87-37,42.13-37A44.73,44.73,0,0,1,957,21.84Z"/><path class="cls-1" d="M974.11,11.07h52.35v16.1H996.24v12H1023V55.61H996.24V69.23h30.22v15.9H974.11Z"/><path class="cls-1" d="M1042.3,11.07h22.14V65.58h30.33V85.13H1042.3Z"/><path class="cls-1" d="M1110.61,11.07h22.14V65.58h30.33V85.13h-52.47Z"/><path class="cls-1" d="M1209.93,33.78c0-3.06-2.92-5.62-6.4-5.62s-6.29,2.56-6.29,5.62,2.8,5.53,6.29,5.53a27.21,27.21,0,0,1,20.33,8.79,21,21,0,0,1,5.62,14.32c0,12.64-11.57,22.71-26,22.71s-26-10-26-23h19.67c0,3.16,2.8,5.63,6.29,5.63s6.4-2.47,6.4-5.53-2.92-5.63-6.4-5.63c-14.38,0-25.84-10.07-25.84-22.71s11.46-22.81,25.84-22.81,26,10.07,26,22.71Z"/></g><g id="Cells1"><path class="cls-1" d="M107.87,106.78a8.45,8.45,0,0,0-5.66-1.94c-4.59,0-7.91,2.93-7.91,7s3.32,7,7.91,7a8.27,8.27,0,0,0,5.66-2l6.3,5.46a18.17,18.17,0,0,1-12,4.38c-9.31,0-16.86-6.64-16.86-14.81S92.9,97,102.21,97a17.9,17.9,0,0,1,11.87,4.31Z"/><path class="cls-1" d="M120.91,97h21v6.44H129.77v4.82h10.7v6.56h-10.7v5.45h12.09v6.36h-21Z"/><path class="cls-1" d="M148.2,97h8.85v21.81h12.14v7.82h-21Z"/><path class="cls-1" d="M175.53,97h8.86v21.81h12.14v7.82h-21Z"/><path class="cls-1" d="M215.27,106.07a2.45,2.45,0,0,0-2.56-2.26,2.41,2.41,0,0,0-2.52,2.26,2.38,2.38,0,0,0,2.52,2.21,10.88,10.88,0,0,1,8.14,3.52,8.38,8.38,0,0,1,2.24,5.72c0,5.06-4.63,9.09-10.38,9.09s-10.39-4-10.39-9.2h7.87a2.39,2.39,0,0,0,2.52,2.25,2.42,2.42,0,0,0,2.56-2.21,2.45,2.45,0,0,0-2.56-2.26c-5.76,0-10.34-4-10.34-9.08S207,97,212.71,97s10.38,4,10.38,9.09Z"/></g><g id="Cells2"><path class="cls-1" d="M107.31,144.22a8.45,8.45,0,0,0-5.66-1.94c-4.59,0-7.92,2.92-7.92,6.95s3.33,7,7.92,7a8.27,8.27,0,0,0,5.66-2l6.3,5.45a18.12,18.12,0,0,1-12,4.39c-9.31,0-16.86-6.64-16.86-14.82s7.55-14.81,16.86-14.81a18,18,0,0,1,11.87,4.3Z"/><path class="cls-1" d="M120.35,134.42h21v6.44H129.2v4.82h10.7v6.56H129.2v5.45h12.1v6.36h-21Z"/><path class="cls-1" d="M147.64,134.42h8.85v21.81h12.14v7.82h-21Z"/><path class="cls-1" d="M175,134.42h8.86v21.81H196v7.82H175Z"/><path class="cls-1" d="M214.71,143.5a2.45,2.45,0,0,0-2.56-2.25,2.41,2.41,0,0,0-2.52,2.25,2.38,2.38,0,0,0,2.52,2.22,10.87,10.87,0,0,1,8.13,3.51,8.41,8.41,0,0,1,2.25,5.73c0,5.06-4.63,9.09-10.38,9.09s-10.39-4-10.39-9.21h7.87a2.38,2.38,0,0,0,2.52,2.26,2.42,2.42,0,0,0,2.56-2.22,2.45,2.45,0,0,0-2.56-2.25c-5.76,0-10.34-4-10.34-9.09s4.58-9.12,10.34-9.12,10.38,4,10.38,9.08Z"/></g><g id="Cells3"><path class="cls-1" d="M107.87,181.65a8.49,8.49,0,0,0-5.66-1.93c-4.59,0-7.91,2.92-7.91,6.95s3.32,7,7.91,7a8.27,8.27,0,0,0,5.66-2l6.3,5.45a18.12,18.12,0,0,1-12,4.39c-9.31,0-16.86-6.64-16.86-14.82s7.55-14.81,16.86-14.81a18,18,0,0,1,11.87,4.3Z"/><path class="cls-1" d="M120.91,171.86h21v6.44H129.77v4.82h10.7v6.56h-10.7v5.45h12.09v6.36h-21Z"/><path class="cls-1" d="M148.2,171.86h8.85v21.81h12.14v7.82h-21Z"/><path class="cls-1" d="M175.53,171.86h8.86v21.81h12.14v7.82h-21Z"/><path class="cls-1" d="M215.27,180.94a2.45,2.45,0,0,0-2.56-2.25,2.41,2.41,0,0,0-2.52,2.25,2.38,2.38,0,0,0,2.52,2.22,10.91,10.91,0,0,1,8.14,3.51,8.4,8.4,0,0,1,2.24,5.73c0,5.06-4.63,9.09-10.38,9.09s-10.39-4-10.39-9.21h7.87a2.39,2.39,0,0,0,2.52,2.26,2.42,2.42,0,0,0,2.56-2.22,2.45,2.45,0,0,0-2.56-2.25c-5.76,0-10.34-4-10.34-9.09s4.58-9.12,10.34-9.12,10.38,4,10.38,9.08Z"/></g><g id="Cells4"><path class="cls-1" d="M107.87,217.76a8.49,8.49,0,0,0-5.66-1.93c-4.59,0-7.91,2.92-7.91,6.95s3.32,7,7.91,7a8.32,8.32,0,0,0,5.66-2l6.3,5.45a18.12,18.12,0,0,1-12,4.39c-9.31,0-16.86-6.64-16.86-14.82S92.9,208,102.21,208a17.9,17.9,0,0,1,11.87,4.31Z"/><path class="cls-1" d="M120.91,208h21v6.44H129.77v4.83h10.7v6.55h-10.7v5.46h12.09v6.36h-21Z"/><path class="cls-1" d="M148.2,208h8.85v21.81h12.14v7.83h-21Z"/><path class="cls-1" d="M175.53,208h8.86v21.81h12.14v7.83h-21Z"/><path class="cls-1" d="M215.27,217.05a2.45,2.45,0,0,0-2.56-2.25,2.41,2.41,0,0,0-2.52,2.25,2.38,2.38,0,0,0,2.52,2.21,10.92,10.92,0,0,1,8.14,3.52,8.4,8.4,0,0,1,2.24,5.73c0,5.06-4.63,9.09-10.38,9.09s-10.39-4-10.39-9.21h7.87a2.38,2.38,0,0,0,2.52,2.25,2.41,2.41,0,0,0,2.56-2.21,2.45,2.45,0,0,0-2.56-2.25c-5.76,0-10.34-4-10.34-9.09S207,208,212.71,208s10.38,4,10.38,9.09Z"/></g><g id="Cells5"><path class="cls-1" d="M107.87,253.87a8.49,8.49,0,0,0-5.66-1.93c-4.59,0-7.91,2.92-7.91,6.95s3.32,6.95,7.91,6.95a8.31,8.31,0,0,0,5.66-2l6.3,5.45a18.12,18.12,0,0,1-12,4.39c-9.31,0-16.86-6.64-16.86-14.82s7.55-14.82,16.86-14.82a17.9,17.9,0,0,1,11.87,4.31Z"/><path class="cls-1" d="M120.91,244.07h21v6.44H129.77v4.82h10.7v6.56h-10.7v5.45h12.09v6.37h-21Z"/><path class="cls-1" d="M148.2,244.07h8.85v21.81h12.14v7.83h-21Z"/><path class="cls-1" d="M175.53,244.07h8.86v21.81h12.14v7.83h-21Z"/><path class="cls-1" d="M215.27,253.16a2.45,2.45,0,0,0-2.56-2.25,2.41,2.41,0,0,0-2.52,2.25,2.38,2.38,0,0,0,2.52,2.21,10.92,10.92,0,0,1,8.14,3.52,8.4,8.4,0,0,1,2.24,5.73c0,5.06-4.63,9.09-10.38,9.09s-10.39-4-10.39-9.21h7.87a2.39,2.39,0,0,0,2.52,2.25,2.25,2.25,0,1,0,0-4.46c-5.76,0-10.34-4-10.34-9.09s4.58-9.13,10.34-9.13,10.38,4,10.38,9.09Z"/></g><g id="Cells6"><path class="cls-1" d="M107.31,291.31a8.5,8.5,0,0,0-5.66-1.94c-4.59,0-7.92,2.93-7.92,7s3.33,6.95,7.92,6.95a8.31,8.31,0,0,0,5.66-2l6.3,5.45a18.12,18.12,0,0,1-12,4.38c-9.31,0-16.86-6.63-16.86-14.81s7.55-14.82,16.86-14.82a17.9,17.9,0,0,1,11.87,4.31Z"/><path class="cls-1" d="M120.35,281.51h21V288H129.2v4.82h10.7v6.56H129.2v5.45h12.1v6.36h-21Z"/><path class="cls-1" d="M147.64,281.51h8.85v21.81h12.14v7.82h-21Z"/><path class="cls-1" d="M175,281.51h8.86v21.81H196v7.82H175Z"/><path class="cls-1" d="M214.71,290.6a2.44,2.44,0,0,0-2.56-2.25,2.4,2.4,0,0,0-2.52,2.25,2.38,2.38,0,0,0,2.52,2.21,10.84,10.84,0,0,1,8.13,3.52,8.39,8.39,0,0,1,2.25,5.73c0,5.05-4.63,9.08-10.38,9.08s-10.39-4-10.39-9.2h7.87a2.38,2.38,0,0,0,2.52,2.25,2.25,2.25,0,1,0,0-4.46c-5.76,0-10.34-4-10.34-9.09s4.58-9.13,10.34-9.13,10.38,4,10.38,9.09Z"/></g><g id="Cells7"><path class="cls-1" d="M107.87,328.75a8.45,8.45,0,0,0-5.66-1.94c-4.59,0-7.91,2.93-7.91,7s3.32,7,7.91,7a8.31,8.31,0,0,0,5.66-2l6.3,5.45a18.17,18.17,0,0,1-12,4.38c-9.31,0-16.86-6.63-16.86-14.81S92.9,319,102.21,319a17.9,17.9,0,0,1,11.87,4.31Z"/><path class="cls-1" d="M120.91,319h21v6.44H129.77v4.82h10.7v6.56h-10.7v5.45h12.09v6.36h-21Z"/><path class="cls-1" d="M148.2,319h8.85v21.81h12.14v7.82h-21Z"/><path class="cls-1" d="M175.53,319h8.86v21.81h12.14v7.82h-21Z"/><path class="cls-1" d="M215.27,328a2.44,2.44,0,0,0-2.56-2.25,2.41,2.41,0,0,0-2.52,2.25,2.38,2.38,0,0,0,2.52,2.21,10.88,10.88,0,0,1,8.14,3.52,8.38,8.38,0,0,1,2.24,5.73c0,5.05-4.63,9.08-10.38,9.08s-10.39-4-10.39-9.2h7.87a2.39,2.39,0,0,0,2.52,2.25,2.42,2.42,0,0,0,2.56-2.21,2.45,2.45,0,0,0-2.56-2.26c-5.76,0-10.34-4-10.34-9.08S207,319,212.71,319s10.38,4,10.38,9.09Z"/></g><g id="Cells_8" data-name="Cells 8"><path class="cls-1" d="M107.87,364.86a8.45,8.45,0,0,0-5.66-1.94c-4.59,0-7.91,2.93-7.91,7s3.32,6.95,7.91,6.95a8.27,8.27,0,0,0,5.66-2l6.3,5.46a18.17,18.17,0,0,1-12,4.38c-9.31,0-16.86-6.64-16.86-14.81s7.55-14.82,16.86-14.82a17.9,17.9,0,0,1,11.87,4.31Z"/><path class="cls-1" d="M120.91,355.06h21v6.44H129.77v4.82h10.7v6.56h-10.7v5.45h12.09v6.36h-21Z"/><path class="cls-1" d="M148.2,355.06h8.85v21.81h12.14v7.82h-21Z"/><path class="cls-1" d="M175.53,355.06h8.86v21.81h12.14v7.82h-21Z"/><path class="cls-1" d="M215.27,364.15a2.45,2.45,0,0,0-2.56-2.26,2.41,2.41,0,0,0-2.52,2.26,2.38,2.38,0,0,0,2.52,2.21,10.88,10.88,0,0,1,8.14,3.52,8.38,8.38,0,0,1,2.24,5.72c0,5.06-4.63,9.09-10.38,9.09s-10.39-4-10.39-9.2h7.87a2.39,2.39,0,0,0,2.52,2.25,2.42,2.42,0,0,0,2.56-2.21,2.45,2.45,0,0,0-2.56-2.26c-5.76,0-10.34-4-10.34-9.08s4.58-9.13,10.34-9.13,10.38,4,10.38,9.09Z"/></g><g id="Intensifies"><path class="cls-1" d="M302.42,96.15h23.11V189.1H302.42Z"/><path class="cls-1" d="M407.9,189.1l-41.54-44v44H343.25V96.15h9.38L394.29,140V96.15H417.4V189.1Z"/><path class="cls-1" d="M433.24,96h69.35v24.29H479.24V189.1H456.12V120.32H433.24Z"/><path class="cls-1" d="M518.54,96.15h54.68v20.2H541.66v15.12h27.92v20.58H541.66v17.1h31.56V189.1H518.54Z"/><path class="cls-1" d="M654.42,189.1l-41.54-44v44H589.77V96.15h9.38L640.81,140V96.15h23.11V189.1Z"/><path class="cls-1" d="M714,124.66a7,7,0,0,0-6.69-7.07,6.87,6.87,0,0,0-6.57,7.07,6.75,6.75,0,0,0,6.57,6.94,26.5,26.5,0,0,1,21.24,11,29.5,29.5,0,0,1,5.87,18c0,15.86-12.09,28.5-27.11,28.5s-27.1-12.52-27.1-28.87h20.53a6.64,6.64,0,1,0,13.26.12,7,7,0,0,0-6.69-7.06c-15,0-27-12.65-27-28.51s12-28.63,27-28.63,27.11,12.64,27.11,28.51Z"/><path class="cls-1" d="M750.75,96.15h23.11V189.1H750.75Z"/><path class="cls-1" d="M791.58,96.15h55.14v20.08h-32v15.12H843v20.7H814.69v37H791.58Z"/><path class="cls-1" d="M863.15,96.15h23.11V189.1H863.15Z"/><path class="cls-1" d="M904,96.15h54.68v20.2H927.09v15.12H955v20.58H927.09v17.1h31.57V189.1H904Z"/><path class="cls-1" d="M1007.58,124.66a7,7,0,0,0-6.68-7.07,6.87,6.87,0,0,0-6.57,7.07,6.75,6.75,0,0,0,6.57,6.94,26.48,26.48,0,0,1,21.23,11,29.44,29.44,0,0,1,5.87,18c0,15.86-12.09,28.5-27.1,28.5s-27.11-12.52-27.11-28.87h20.54a6.64,6.64,0,1,0,13.25.12,7,7,0,0,0-6.68-7.06c-15,0-27-12.65-27-28.51s12-28.63,27-28.63,27.1,12.64,27.1,28.51Z"/></g><g id="CellsBig"><path class="cls-1" d="M1305.53,546a21.18,21.18,0,0,0,5.93-15.24c0-12.33-9-21.28-21.29-21.28s-21.29,8.95-21.29,21.28a20.78,20.78,0,0,0,6,15.24l-16.69,16.94a45.35,45.35,0,1,1,77.29-32.18,44.92,44.92,0,0,1-13.18,31.94Z"/><path class="cls-1" d="M1335.53,581.05v56.36h-19.72V604.88h-14.75v28.78H1281V604.88h-16.69v32.53h-19.47V581.05Z"/><path class="cls-1" d="M1335.53,654.47v23.82h-66.77V711h-23.94V654.47Z"/><path class="cls-1" d="M1335.53,728v23.83h-66.77v32.66h-23.94V728Z"/><path class="cls-1" d="M1307.71,834.92a7,7,0,0,0,6.89-6.89,6.86,6.86,0,0,0-6.89-6.77,6.76,6.76,0,0,0-6.77,6.77A28.06,28.06,0,1,1,1273,800.09v21.17a6.79,6.79,0,0,0-6.9,6.77,6.87,6.87,0,0,0,6.78,6.89,7,7,0,0,0,6.89-6.89A27.88,27.88,0,1,1,1307.71,856Z"/></g><g id="Interlinked1"><path class="cls-1" d="M219.4,393.83v6.43H184.08v-6.43Z"/><path class="cls-1" d="M184.08,423.18l16.72-11.56H184.08v-6.43H219.4v2.61l-16.67,11.59H219.4v6.44H184.08Z"/><path class="cls-1" d="M219.45,430.23v19.3h-9.23V443H184.08V436.6h26.14v-6.37Z"/><path class="cls-1" d="M219.4,454v15.22h-7.68V460.4H206v7.78h-7.82V460.4h-6.5v8.79h-7.58V454Z"/><path class="cls-1" d="M184.08,488l9.37-3.78v-4h-9.37v-6.43H219.4v10.32c0,5-5.84,9-13,9a16,16,0,0,1-9.51-2.91l-12.81,5.2Zm17.38-7.77v4c0,2,2.21,3.52,5,3.52s5.08-1.56,5.08-3.52v-4Z"/><path class="cls-1" d="M219.4,498.57V505h-26v8.81h-9.32V498.57Z"/><path class="cls-1" d="M219.4,518.39v6.43H184.08v-6.43Z"/><path class="cls-1" d="M184.08,547.75l16.72-11.56H184.08v-6.44H219.4v2.62L202.73,544H219.4v6.43H184.08Z"/><path class="cls-1" d="M219.4,579l-16.15-11.16-19.17,13.25V572l12.53-8.72-2.26-1.54H184.08v-6.43H219.4v6.43H207.49L219.4,570Z"/><path class="cls-1" d="M219.4,583.34v15.21h-7.68v-8.78H206v7.77h-7.82v-7.77h-6.5v8.78h-7.58V583.34Z"/><path class="cls-1" d="M219.4,603.15v9.08c0,6.76-7.91,12.25-17.66,12.25s-17.66-5.49-17.66-12.25v-9.08Zm-26.09,6.4v2.71c0,3.2,3.77,5.82,8.38,5.82s8.34-2.62,8.34-5.82v-2.71Z"/></g><g id="Interlinked2"><path class="cls-1" d="M124.5,633.91v6.43H89.18v-6.43Z"/><path class="cls-1" d="M89.18,663.26,105.9,651.7H89.18v-6.43H124.5v2.61l-16.67,11.59H124.5v6.44H89.18Z"/><path class="cls-1" d="M124.55,670.31v19.3h-9.23v-6.5H89.18v-6.43h26.14v-6.37Z"/><path class="cls-1" d="M124.5,694.05v15.22h-7.67v-8.79h-5.75v7.78h-7.82v-7.78h-6.5v8.79H89.18V694.05Z"/><path class="cls-1" d="M89.18,728.08l9.37-3.79v-4H89.18v-6.43H124.5v10.32c0,5-5.84,9-13,9a16.06,16.06,0,0,1-9.51-2.9l-12.81,5.19Zm17.38-7.78v4c0,2,2.21,3.52,5,3.52s5.08-1.56,5.08-3.52v-4Z"/><path class="cls-1" d="M124.5,738.65v6.44h-26v8.81H89.18V738.65Z"/><path class="cls-1" d="M124.5,758.47v6.44H89.18v-6.44Z"/><path class="cls-1" d="M89.18,787.83l16.72-11.56H89.18v-6.43H124.5v2.61L107.83,784H124.5v6.43H89.18Z"/><path class="cls-1" d="M124.5,819.07l-16.15-11.16L89.18,821.16v-9.07l12.53-8.72-2.26-1.54H89.18V795.4H124.5v6.43H112.59l11.91,8.23Z"/><path class="cls-1" d="M124.5,823.42v15.21h-7.67v-8.78h-5.75v7.77h-7.82v-7.77h-6.5v8.78H89.18V823.42Z"/><path class="cls-1" d="M124.5,843.24v9.07c0,6.76-7.91,12.25-17.66,12.25s-17.66-5.49-17.66-12.25v-9.07Zm-26.09,6.4v2.71c0,3.19,3.77,5.81,8.38,5.81s8.34-2.62,8.34-5.81v-2.71Z"/></g><g id="Interlinked3"><path class="cls-1" d="M172,633.9v6.44H136.63V633.9Z"/><path class="cls-1" d="M136.63,663.26l16.72-11.56H136.63v-6.43H172v2.61l-16.67,11.59H172v6.43H136.63Z"/><path class="cls-1" d="M172,670.31v19.3h-9.23v-6.5H136.63v-6.43h26.14v-6.37Z"/><path class="cls-1" d="M172,694.05v15.21h-7.68v-8.78h-5.74v7.77h-7.82v-7.77h-6.5v8.78h-7.58V694.05Z"/><path class="cls-1" d="M136.63,728.07l9.37-3.79v-4h-9.37v-6.43H172v10.31c0,5-5.84,9-13,9a16,16,0,0,1-9.51-2.91l-12.81,5.19ZM154,720.3v4c0,2,2.21,3.53,5,3.53s5.08-1.57,5.08-3.53v-4Z"/><path class="cls-1" d="M172,738.65v6.43H146v8.82h-9.32V738.65Z"/><path class="cls-1" d="M172,758.47v6.43H136.63v-6.43Z"/><path class="cls-1" d="M136.63,787.82l16.72-11.56H136.63v-6.43H172v2.61L155.28,784H172v6.44H136.63Z"/><path class="cls-1" d="M172,819.07,155.8,807.9l-19.17,13.26v-9.08l12.53-8.72-2.26-1.53H136.63V795.4H172v6.43H160L172,810.06Z"/><path class="cls-1" d="M172,823.41v15.22h-7.68v-8.79h-5.74v7.77h-7.82v-7.77h-6.5v8.79h-7.58V823.41Z"/><path class="cls-1" d="M172,843.23v9.08c0,6.76-7.91,12.24-17.66,12.24s-17.66-5.48-17.66-12.24v-9.08Zm-26.09,6.4v2.71c0,3.2,3.77,5.81,8.38,5.81s8.34-2.61,8.34-5.81v-2.71Z"/></g><g id="Interlinked4"><path class="cls-1" d="M219.4,633.91v6.43H184.08v-6.43Z"/><path class="cls-1" d="M184.08,663.26,200.8,651.7H184.08v-6.43H219.4v2.61l-16.67,11.59H219.4v6.44H184.08Z"/><path class="cls-1" d="M219.45,670.31v19.3h-9.23v-6.5H184.08v-6.43h26.14v-6.37Z"/><path class="cls-1" d="M219.4,694.05v15.22h-7.68v-8.79H206v7.78h-7.82v-7.78h-6.5v8.79h-7.58V694.05Z"/><path class="cls-1" d="M184.08,728.08l9.37-3.79v-4h-9.37v-6.43H219.4v10.32c0,5-5.84,9-13,9a16,16,0,0,1-9.51-2.9l-12.81,5.19Zm17.38-7.78v4c0,2,2.21,3.52,5,3.52s5.08-1.56,5.08-3.52v-4Z"/><path class="cls-1" d="M219.4,738.65v6.44h-26v8.81h-9.32V738.65Z"/><path class="cls-1" d="M219.4,758.47v6.44H184.08v-6.44Z"/><path class="cls-1" d="M184.08,787.83l16.72-11.56H184.08v-6.43H219.4v2.61L202.73,784H219.4v6.43H184.08Z"/><path class="cls-1" d="M219.4,819.07l-16.15-11.16-19.17,13.25v-9.07l12.53-8.72-2.26-1.54H184.08V795.4H219.4v6.43H207.49l11.91,8.23Z"/><path class="cls-1" d="M219.4,823.42v15.21h-7.68v-8.78H206v7.77h-7.82v-7.77h-6.5v8.78h-7.58V823.42Z"/><path class="cls-1" d="M219.4,843.24v9.07c0,6.76-7.91,12.25-17.66,12.25s-17.66-5.49-17.66-12.25v-9.07Zm-26.09,6.4v2.71c0,3.19,3.77,5.81,8.38,5.81s8.34-2.62,8.34-5.81v-2.71Z"/></g><g id="Interlinked5"><path class="cls-1" d="M1186.79,604.83v7.26h-35.17v-7.26Z"/><path class="cls-1" d="M1151.62,638l16.65-13.05h-16.65v-7.26h35.17v3l-16.6,13.08h16.6V641h-35.17Z"/><path class="cls-1" d="M1186.84,645.93v21.79h-9.19v-7.34h-26v-7.26h26v-7.19Z"/><path class="cls-1" d="M1186.79,672.73v17.18h-7.64V680h-5.72v8.78h-7.79V680h-6.47v9.92h-7.55V672.73Z"/><path class="cls-1" d="M1151.62,711.14l9.34-4.27v-4.5h-9.34v-7.26h35.17v11.65c0,5.6-5.81,10.17-12.94,10.17a14.7,14.7,0,0,1-9.47-3.28l-12.76,5.86Zm17.31-8.77v4.5c0,2.21,2.2,4,5,4s5.07-1.77,5.07-4v-4.5Z"/><path class="cls-1" d="M1186.79,723.09v7.26h-25.88v9.95h-9.29V723.09Z"/><path class="cls-1" d="M1186.79,745.46v7.26h-35.17v-7.26Z"/><path class="cls-1" d="M1151.62,778.6l16.65-13.05h-16.65v-7.26h35.17v3l-16.6,13.09h16.6v7.26h-35.17Z"/><path class="cls-1" d="M1186.79,813.88l-16.08-12.61-19.09,15V806l12.48-9.84-2.25-1.73h-10.23v-7.27h35.17v7.27h-11.86l11.86,9.28Z"/><path class="cls-1" d="M1186.79,818.78V836h-7.64V826h-5.72v8.78h-7.79V826h-6.47V836h-7.55V818.78Z"/><path class="cls-1" d="M1186.79,841.16v10.25c0,7.63-7.88,13.82-17.58,13.82s-17.59-6.19-17.59-13.82V841.16Zm-26,7.22v3.06c0,3.61,3.76,6.56,8.35,6.56s8.3-3,8.3-6.56v-3.06Z"/></g><g id="Interlinked6"><path class="cls-1" d="M1231.38,604.82v7.27h-35.16v-7.27Z"/><path class="cls-1" d="M1196.22,638l16.64-13.05h-16.64v-7.26h35.16v3l-16.59,13.09h16.59V641h-35.16Z"/><path class="cls-1" d="M1231.43,645.93v21.78h-9.19v-7.33h-26v-7.27h26v-7.18Z"/><path class="cls-1" d="M1231.38,672.73V689.9h-7.64V680H1218v8.77h-7.78V680h-6.47v9.91h-7.55V672.73Z"/><path class="cls-1" d="M1196.22,711.14l9.33-4.28v-4.5h-9.33V695.1h35.16v11.65c0,5.6-5.81,10.17-12.94,10.17a14.72,14.72,0,0,1-9.47-3.28l-12.75,5.86Zm17.3-8.78v4.5c0,2.21,2.2,4,5,4s5.06-1.77,5.06-4v-4.5Z"/><path class="cls-1" d="M1231.38,723.08v7.26H1205.5v10h-9.28V723.08Z"/><path class="cls-1" d="M1231.38,745.46v7.26h-35.16v-7.26Z"/><path class="cls-1" d="M1196.22,778.6l16.64-13.05h-16.64v-7.27h35.16v3l-16.59,13.09h16.59v7.26h-35.16Z"/><path class="cls-1" d="M1231.38,813.87l-16.08-12.6-19.08,15V806l12.47-9.84-2.25-1.73h-10.22v-7.26h35.16v7.26h-11.86l11.86,9.29Z"/><path class="cls-1" d="M1231.38,818.78V836h-7.64V826H1218v8.77h-7.78V826h-6.47V836h-7.55V818.78Z"/><path class="cls-1" d="M1231.38,841.15V851.4c0,7.63-7.87,13.82-17.58,13.82s-17.58-6.19-17.58-13.82V841.15Zm-26,7.23v3.06c0,3.61,3.75,6.56,8.34,6.56s8.3-3,8.3-6.56v-3.06Z"/></g><g id="Interlinked7"><path class="cls-1" d="M1186.79,351.08V358h-35.17v-6.87Z"/><path class="cls-1" d="M1151.62,382.43l16.65-12.35h-16.65v-6.87h35.17V366l-16.6,12.38h16.6v6.87h-35.17Z"/><path class="cls-1" d="M1186.84,390v20.61h-9.19v-6.94h-26v-6.87h26V390Z"/><path class="cls-1" d="M1186.79,415.31v16.26h-7.64v-9.39h-5.72v8.3h-7.79v-8.3h-6.47v9.39h-7.55V415.31Z"/><path class="cls-1" d="M1151.62,451.65l9.34-4v-4.26h-9.34v-6.87h35.17v11c0,5.3-5.81,9.63-12.94,9.63a15.24,15.24,0,0,1-9.47-3.1l-12.76,5.54Zm17.31-8.3v4.26c0,2.09,2.2,3.76,5,3.76s5.07-1.67,5.07-3.76v-4.26Z"/><path class="cls-1" d="M1186.79,463v6.87h-25.88v9.42h-9.29V463Z"/><path class="cls-1" d="M1186.79,484.12V491h-35.17v-6.87Z"/><path class="cls-1" d="M1151.62,515.47l16.65-12.34h-16.65v-6.87h35.17v2.79l-16.6,12.38h16.6v6.87h-35.17Z"/><path class="cls-1" d="M1186.79,548.85l-16.08-11.93-19.09,14.16v-9.7l12.48-9.31-2.25-1.64h-10.23v-6.87h35.17v6.87h-11.86l11.86,8.79Z"/><path class="cls-1" d="M1186.79,553.49v16.25h-7.64v-9.38h-5.72v8.3h-7.79v-8.3h-6.47v9.38h-7.55V553.49Z"/><path class="cls-1" d="M1186.79,574.65v9.7c0,7.22-7.88,13.08-17.58,13.08s-17.59-5.86-17.59-13.08v-9.7Zm-26,6.84v2.89c0,3.42,3.76,6.21,8.35,6.21s8.3-2.79,8.3-6.21v-2.89Z"/></g><g id="Interlinked8"><path class="cls-1" d="M1231.38,351.07v6.87h-35.16v-6.87Z"/><path class="cls-1" d="M1196.22,382.42l16.64-12.34h-16.64v-6.87h35.16V366l-16.59,12.38h16.59v6.87h-35.16Z"/><path class="cls-1" d="M1231.43,390v20.61h-9.19v-6.94h-26v-6.87h26V390Z"/><path class="cls-1" d="M1231.38,415.31v16.25h-7.64v-9.38H1218v8.3h-7.78v-8.3h-6.47v9.38h-7.55V415.31Z"/><path class="cls-1" d="M1196.22,451.65l9.33-4v-4.25h-9.33v-6.87h35.16v11c0,5.3-5.81,9.62-12.94,9.62A15.27,15.27,0,0,1,1209,454l-12.75,5.54Zm17.3-8.3v4.25c0,2.1,2.2,3.77,5,3.77s5.06-1.67,5.06-3.77v-4.25Z"/><path class="cls-1" d="M1231.38,463v6.87H1205.5v9.41h-9.28V463Z"/><path class="cls-1" d="M1231.38,484.12V491h-35.16v-6.87Z"/><path class="cls-1" d="M1196.22,515.47l16.64-12.35h-16.64v-6.87h35.16V499l-16.59,12.38h16.59v6.87h-35.16Z"/><path class="cls-1" d="M1231.38,548.84l-16.08-11.93-19.08,14.16v-9.69l12.47-9.31-2.25-1.64h-10.22v-6.87h35.16v6.87h-11.86l11.86,8.79Z"/><path class="cls-1" d="M1231.38,553.48v16.25h-7.64v-9.38H1218v8.3h-7.78v-8.3h-6.47v9.38h-7.55V553.48Z"/><path class="cls-1" d="M1231.38,574.65v9.69c0,7.22-7.87,13.08-17.58,13.08s-17.58-5.86-17.58-13.08v-9.69Zm-26,6.83v2.9c0,3.42,3.75,6.21,8.34,6.21s8.3-2.79,8.3-6.21v-2.9Z"/></g><g id="Interlinked9"><path class="cls-1" d="M1143.05,97.62v6.87h-35.16V97.62Z"/><path class="cls-1" d="M1107.89,129l16.64-12.35h-16.64v-6.87h35.16v2.79l-16.6,12.38h16.6v6.87h-35.16Z"/><path class="cls-1" d="M1143.1,136.5v20.61h-9.19v-6.94h-26V143.3h26v-6.8Z"/><path class="cls-1" d="M1143.05,161.85v16.26h-7.64v-9.39h-5.72V177h-7.79v-8.3h-6.47v9.39h-7.54V161.85Z"/><path class="cls-1" d="M1107.89,198.19l9.33-4v-4.26h-9.33V183h35.16v11c0,5.3-5.81,9.63-12.94,9.63a15.19,15.19,0,0,1-9.47-3.11l-12.75,5.55Zm17.3-8.3v4.26c0,2.09,2.2,3.76,5,3.76s5.07-1.67,5.07-3.76v-4.26Z"/><path class="cls-1" d="M1143.05,209.49v6.87h-25.88v9.42h-9.28V209.49Z"/><path class="cls-1" d="M1143.05,230.66v6.87h-35.16v-6.87Z"/><path class="cls-1" d="M1107.89,262l16.64-12.34h-16.64V242.8h35.16v2.79L1126.45,258h16.6v6.87h-35.16Z"/><path class="cls-1" d="M1143.05,295.39,1127,283.46l-19.08,14.16v-9.7l12.47-9.31-2.25-1.64h-10.22V270.1h35.16V277h-11.86l11.86,8.79Z"/><path class="cls-1" d="M1143.05,300v16.26h-7.64v-9.39h-5.72v8.31h-7.79v-8.31h-6.47v9.39h-7.54V300Z"/><path class="cls-1" d="M1143.05,321.19v9.7c0,7.22-7.88,13.08-17.58,13.08s-17.58-5.86-17.58-13.08v-9.7Zm-26,6.84v2.89c0,3.42,3.75,6.21,8.34,6.21s8.3-2.79,8.3-6.21V328Z"/></g><g id="Interlinked10"><path class="cls-1" d="M1187.64,97.61v6.87h-35.16V97.61Z"/><path class="cls-1" d="M1152.48,129l16.64-12.34h-16.64v-6.87h35.16v2.79l-16.59,12.38h16.59v6.87h-35.16Z"/><path class="cls-1" d="M1187.69,136.49v20.62h-9.19v-6.94h-26v-6.88h26v-6.8Z"/><path class="cls-1" d="M1187.64,161.85V178.1H1180v-9.38h-5.72V177h-7.78v-8.3H1160v9.38h-7.55V161.85Z"/><path class="cls-1" d="M1152.48,198.19l9.33-4.05v-4.25h-9.33V183h35.16v11c0,5.3-5.81,9.62-12.94,9.62a15.27,15.27,0,0,1-9.47-3.1l-12.75,5.54Zm17.3-8.3v4.25c0,2.09,2.2,3.77,5,3.77s5.06-1.68,5.06-3.77v-4.25Z"/><path class="cls-1" d="M1187.64,209.49v6.87h-25.88v9.41h-9.28V209.49Z"/><path class="cls-1" d="M1187.64,230.65v6.88h-35.16v-6.88Z"/><path class="cls-1" d="M1152.48,262l16.64-12.35h-16.64v-6.87h35.16v2.79L1171.05,258h16.59v6.87h-35.16Z"/><path class="cls-1" d="M1187.64,295.38l-16.08-11.93-19.08,14.16v-9.69l12.47-9.31L1162.7,277h-10.22V270.1h35.16V277h-11.86l11.86,8.79Z"/><path class="cls-1" d="M1187.64,300v16.25H1180v-9.38h-5.72v8.3h-7.78v-8.3H1160v9.38h-7.55V300Z"/><path class="cls-1" d="M1187.64,321.19v9.69c0,7.22-7.87,13.08-17.58,13.08s-17.58-5.86-17.58-13.08v-9.69Zm-26,6.83v2.9c0,3.42,3.75,6.21,8.35,6.21s8.29-2.79,8.29-6.21V328Z"/></g><g id="Interlinked11"><path class="cls-1" d="M1336.67,195.82v7.75H1297v-7.75Z"/><path class="cls-1" d="M1297,231.19l18.78-13.93H1297v-7.75h39.68v3.15l-18.73,14h18.73v7.75H1297Z"/><path class="cls-1" d="M1336.72,239.69V263h-10.37v-7.83H1297v-7.75h29.36v-7.68Z"/><path class="cls-1" d="M1336.67,268.3v18.34h-8.62V276.05h-6.46v9.37h-8.78v-9.37h-7.3v10.59H1297V268.3Z"/><path class="cls-1" d="M1297,309.3l10.53-4.56v-4.8H1297v-7.75h39.68v12.43c0,6-6.56,10.86-14.6,10.86a17.25,17.25,0,0,1-10.69-3.5L1297,318.24Zm19.52-9.36v4.8c0,2.36,2.49,4.25,5.66,4.25s5.72-1.89,5.72-4.25v-4.8Z"/><path class="cls-1" d="M1336.67,322.05v7.75h-29.2v10.63H1297V322.05Z"/><path class="cls-1" d="M1336.67,345.94v7.75H1297v-7.75Z"/><path class="cls-1" d="M1297,381.31l18.78-13.93H1297v-7.75h39.68v3.15l-18.73,14h18.73v7.75H1297Z"/><path class="cls-1" d="M1336.67,419l-18.15-13.46-21.53,16V410.55L1311.06,400l-2.54-1.85H1297v-7.75h39.68v7.75h-13.39l13.39,9.92Z"/><path class="cls-1" d="M1336.67,424.2v18.34h-8.62V432h-6.46v9.36h-8.78V432h-7.3v10.58H1297V424.2Z"/><path class="cls-1" d="M1336.67,448.09V459c0,8.14-8.89,14.75-19.84,14.75S1297,467.17,1297,459V448.09Zm-29.31,7.71v3.27c0,3.85,4.23,7,9.42,7s9.36-3.15,9.36-7V455.8Z"/></g><g id="Interlinked12"><path class="cls-1" d="M124.5,393.83v6.43H89.18v-6.43Z"/><path class="cls-1" d="M89.18,423.18l16.72-11.56H89.18v-6.43H124.5v2.61l-16.67,11.59H124.5v6.44H89.18Z"/><path class="cls-1" d="M124.55,430.23v19.3h-9.23V443H89.18V436.6h26.14v-6.37Z"/><path class="cls-1" d="M124.5,454v15.22h-7.67V460.4h-5.75v7.78h-7.82V460.4h-6.5v8.79H89.18V454Z"/><path class="cls-1" d="M89.18,488l9.37-3.78v-4H89.18v-6.43H124.5v10.32c0,5-5.84,9-13,9a16,16,0,0,1-9.51-2.91l-12.81,5.2Zm17.38-7.77v4c0,2,2.21,3.52,5,3.52s5.08-1.56,5.08-3.52v-4Z"/><path class="cls-1" d="M124.5,498.57V505h-26v8.81H89.18V498.57Z"/><path class="cls-1" d="M124.5,518.39v6.43H89.18v-6.43Z"/><path class="cls-1" d="M89.18,547.75l16.72-11.56H89.18v-6.44H124.5v2.62L107.83,544H124.5v6.43H89.18Z"/><path class="cls-1" d="M124.5,579l-16.15-11.16L89.18,581.08V572l12.53-8.72-2.26-1.54H89.18v-6.43H124.5v6.43H112.59L124.5,570Z"/><path class="cls-1" d="M124.5,583.34v15.21h-7.67v-8.78h-5.75v7.77h-7.82v-7.77h-6.5v8.78H89.18V583.34Z"/><path class="cls-1" d="M124.5,603.15v9.08c0,6.76-7.91,12.25-17.66,12.25S89.18,619,89.18,612.23v-9.08Zm-26.09,6.4v2.71c0,3.2,3.77,5.82,8.38,5.82s8.34-2.62,8.34-5.82v-2.71Z"/></g><g id="Interlinked13"><path class="cls-1" d="M1232.24,97.61v6.87h-35.17V97.61Z"/><path class="cls-1" d="M1197.07,129l16.65-12.34h-16.65v-6.87h35.17v2.79l-16.6,12.38h16.6v6.87h-35.17Z"/><path class="cls-1" d="M1232.29,136.49v20.62h-9.19v-6.94h-26v-6.88h26v-6.8Z"/><path class="cls-1" d="M1232.24,161.85V178.1h-7.64v-9.38h-5.72V177h-7.79v-8.3h-6.47v9.38h-7.55V161.85Z"/><path class="cls-1" d="M1197.07,198.19l9.33-4.05v-4.25h-9.33V183h35.17v11c0,5.3-5.81,9.62-12.94,9.62a15.24,15.24,0,0,1-9.47-3.1l-12.76,5.54Zm17.31-8.3v4.25c0,2.09,2.2,3.77,5,3.77s5.07-1.68,5.07-3.77v-4.25Z"/><path class="cls-1" d="M1232.24,209.49v6.87h-25.88v9.41h-9.29V209.49Z"/><path class="cls-1" d="M1232.24,230.65v6.88h-35.17v-6.88Z"/><path class="cls-1" d="M1197.07,262l16.65-12.35h-16.65v-6.87h35.17v2.79L1215.64,258h16.6v6.87h-35.17Z"/><path class="cls-1" d="M1232.24,295.38l-16.08-11.93-19.09,14.16v-9.69l12.48-9.31L1207.3,277h-10.23V270.1h35.17V277h-11.86l11.86,8.79Z"/><path class="cls-1" d="M1232.24,300v16.25h-7.64v-9.38h-5.72v8.3h-7.79v-8.3h-6.47v9.38h-7.55V300Z"/><path class="cls-1" d="M1232.24,321.19v9.69c0,7.22-7.88,13.08-17.58,13.08s-17.59-5.86-17.59-13.08v-9.69Zm-26,6.83v2.9c0,3.42,3.75,6.21,8.35,6.21s8.3-2.79,8.3-6.21V328Z"/></g><g id="Interlinked14"><path class="cls-1" d="M1283.37,195.82v7.76h-39.68v-7.76Z"/><path class="cls-1" d="M1243.69,231.2l18.78-13.93h-18.78v-7.75h39.68v3.15l-18.73,14h18.73v7.75h-39.68Z"/><path class="cls-1" d="M1283.42,239.7V263h-10.37v-7.84h-29.36v-7.75h29.36V239.7Z"/><path class="cls-1" d="M1283.37,268.31v18.33h-8.62V276.06h-6.46v9.36h-8.78v-9.36h-7.3v10.58h-8.52V268.31Z"/><path class="cls-1" d="M1243.69,309.31l10.53-4.57v-4.8h-10.53v-7.75h39.68v12.44c0,6-6.56,10.86-14.6,10.86a17.25,17.25,0,0,1-10.69-3.5l-14.39,6.25Zm19.52-9.37v4.8c0,2.37,2.49,4.25,5.66,4.25s5.72-1.88,5.72-4.25v-4.8Z"/><path class="cls-1" d="M1283.37,322.06v7.75h-29.2v10.63h-10.48V322.06Z"/><path class="cls-1" d="M1283.37,345.94v7.76h-39.68v-7.76Z"/><path class="cls-1" d="M1243.69,381.32l18.78-13.93h-18.78v-7.75h39.68v3.14l-18.73,14h18.73v7.76h-39.68Z"/><path class="cls-1" d="M1283.37,419l-18.15-13.46-21.53,16V410.56l14.07-10.51-2.53-1.85h-11.54v-7.75h39.68v7.75H1270l13.38,9.92Z"/><path class="cls-1" d="M1283.37,424.21v18.34h-8.62V432h-6.46v9.37h-8.78V432h-7.3v10.59h-8.52V424.21Z"/><path class="cls-1" d="M1283.37,448.1V459c0,8.15-8.89,14.76-19.84,14.76s-19.84-6.61-19.84-14.76V448.1Zm-29.31,7.71v3.26c0,3.86,4.23,7,9.42,7s9.36-3.15,9.36-7v-3.26Z"/></g><g id="Interlinked15"><path class="cls-1" d="M172,393.82v6.44H136.63v-6.44Z"/><path class="cls-1" d="M136.63,423.18l16.72-11.56H136.63v-6.43H172v2.61l-16.67,11.59H172v6.43H136.63Z"/><path class="cls-1" d="M172,430.23v19.3h-9.23V443H136.63V436.6h26.14v-6.37Z"/><path class="cls-1" d="M172,454v15.21h-7.68V460.4h-5.74v7.77h-7.82V460.4h-6.5v8.78h-7.58V454Z"/><path class="cls-1" d="M136.63,488,146,484.2v-4h-9.37v-6.43H172V484.1c0,5-5.84,9-13,9a16,16,0,0,1-9.51-2.91l-12.81,5.19ZM154,480.22v4c0,2,2.21,3.53,5,3.53s5.08-1.57,5.08-3.53v-4Z"/><path class="cls-1" d="M172,498.57V505H146v8.82h-9.32V498.57Z"/><path class="cls-1" d="M172,518.39v6.43H136.63v-6.43Z"/><path class="cls-1" d="M136.63,547.74l16.72-11.56H136.63v-6.43H172v2.61L155.28,544H172v6.44H136.63Z"/><path class="cls-1" d="M172,579,155.8,567.82l-19.17,13.26V572l12.53-8.72-2.26-1.53H136.63v-6.43H172v6.43H160L172,570Z"/><path class="cls-1" d="M172,583.33v15.22h-7.68v-8.79h-5.74v7.77h-7.82v-7.77h-6.5v8.79h-7.58V583.33Z"/><path class="cls-1" d="M172,603.15v9.08c0,6.76-7.91,12.24-17.66,12.24s-17.66-5.48-17.66-12.24v-9.08Zm-26.09,6.4v2.71c0,3.2,3.77,5.81,8.38,5.81s8.34-2.61,8.34-5.81v-2.71Z"/></g><g id="Within1"><path class="cls-1" d="M108.35,929.42l-3.15,10h-3.61l-8.8-28h5.49l5.39,17.12,3.64-11.64h2.11l3.63,11.64,5.42-17.12H124l-8.82,28h-3.61Z"/><path class="cls-1" d="M126.13,911.41h5v28h-5Z"/><path class="cls-1" d="M134.58,911.38h15v7.3h-5.06v20.7h-5v-20.7h-5Z"/><path class="cls-1" d="M158.08,911.41v10h6v-10h5v28h-5V928.71h-6v10.67h-5v-28Z"/><path class="cls-1" d="M173,911.41h5v28h-5Z"/><path class="cls-1" d="M195.82,939.38l-9-13.24v13.24h-5v-28h2l9,13.2v-13.2h5v28Z"/><path class="cls-1" d="M225.45,920.66a3.84,3.84,0,0,0-3.2-1.83c-2.6,0-4.48,2.76-4.48,6.56s1.88,6.57,4.48,6.57a3.79,3.79,0,0,0,3.2-1.87l3.56,5.15c-1.73,2.53-4.12,4.14-6.76,4.14-5.26,0-9.53-6.27-9.53-14s4.27-14,9.53-14c2.62,0,5,1.53,6.71,4.07Z"/><path class="cls-1" d="M232.83,911.41h11.85v6.08h-6.84V922h6v6.19h-6v5.14h6.84v6H232.83Z"/><path class="cls-1" d="M248.27,911.41h5V932h6.86v7.39H248.27Z"/><path class="cls-1" d="M263.74,911.41h5V932h6.87v7.39H263.74Z"/><path class="cls-1" d="M286.22,920c0-1.16-.67-2.13-1.45-2.13s-1.43,1-1.43,2.13.64,2.09,1.43,2.09c1.85,0,3.53,1.3,4.6,3.31a11.41,11.41,0,0,1,1.27,5.41c0,4.77-2.62,8.58-5.87,8.58s-5.88-3.77-5.88-8.69h4.45c0,1.19.64,2.12,1.43,2.12s1.45-.93,1.45-2.08-.67-2.13-1.45-2.13c-3.26,0-5.85-3.8-5.85-8.57s2.59-8.62,5.85-8.62,5.87,3.81,5.87,8.58Z"/><path class="cls-1" d="M305.63,911.41h5v28h-5Z"/><path class="cls-1" d="M328.48,939.38l-9-13.24v13.24h-5v-28h2l9,13.2v-13.2h5v28Z"/><path class="cls-1" d="M334,911.38h15v7.3H344v20.7h-5v-20.7H334Z"/><path class="cls-1" d="M352.48,911.41h11.84v6.08h-6.84V922h6v6.19h-6v5.14h6.84v6H352.48Z"/><path class="cls-1" d="M379,939.38,376,932h-3.1v7.42h-5v-28h8c3.86,0,7,4.63,7,10.29a12.84,12.84,0,0,1-2.26,7.53l4,10.15Zm-6.05-13.76H376c1.53,0,2.75-1.75,2.75-4s-1.22-4-2.75-4h-3.1Z"/><path class="cls-1" d="M387.22,911.41h5V932h6.86v7.39H387.22Z"/><path class="cls-1" d="M402.66,911.41h5v28h-5Z"/><path class="cls-1" d="M425.52,939.38l-9-13.24v13.24h-5v-28h2l9,13.2v-13.2h5v28Z"/><path class="cls-1" d="M449.85,911.41l-8.69,12.79,10.32,15.18h-7.07l-6.78-9.92-1.2,1.79v8.13h-5v-28h5v9.44l6.41-9.44Z"/><path class="cls-1" d="M453.25,911.41h11.84v6.08h-6.83V922h6v6.19h-6v5.14h6.83v6H453.25Z"/><path class="cls-1" d="M468.69,911.41h7.06c5.26,0,9.54,6.27,9.54,14s-4.28,14-9.54,14h-7.06Zm5,20.73h2.11c2.49,0,4.52-3,4.52-6.63s-2-6.6-4.52-6.6h-2.11Z"/></g><g id="Within2"><path class="cls-1" d="M108.35,892.11l-3.15,9.95h-3.61l-8.8-28h5.49l5.39,17.11,3.64-11.63h2.11l3.63,11.63,5.42-17.11H124l-8.82,28h-3.61Z"/><path class="cls-1" d="M126.13,874.1h5v28h-5Z"/><path class="cls-1" d="M134.58,874.06h15v7.31h-5.06v20.69h-5V881.37h-5Z"/><path class="cls-1" d="M158.08,874.1v9.95h6V874.1h5v28h-5V891.4h-6v10.66h-5v-28Z"/><path class="cls-1" d="M173,874.1h5v28h-5Z"/><path class="cls-1" d="M195.82,902.06l-9-13.24v13.24h-5v-28h2l9,13.2V874.1h5v28Z"/><path class="cls-1" d="M225.45,883.34a3.85,3.85,0,0,0-3.2-1.82c-2.6,0-4.48,2.76-4.48,6.56s1.88,6.56,4.48,6.56a3.8,3.8,0,0,0,3.2-1.86l3.56,5.14c-1.73,2.54-4.12,4.14-6.76,4.14-5.26,0-9.53-6.26-9.53-14s4.27-14,9.53-14c2.62,0,5,1.53,6.71,4.06Z"/><path class="cls-1" d="M232.83,874.1h11.85v6.08h-6.84v4.54h6v6.19h-6v5.15h6.84v6H232.83Z"/><path class="cls-1" d="M248.27,874.1h5v20.58h6.86v7.38H248.27Z"/><path class="cls-1" d="M263.74,874.1h5v20.58h6.87v7.38H263.74Z"/><path class="cls-1" d="M286.22,882.67c0-1.15-.67-2.12-1.45-2.12s-1.43,1-1.43,2.12.64,2.09,1.43,2.09c1.85,0,3.53,1.31,4.6,3.32a11.35,11.35,0,0,1,1.27,5.41c0,4.77-2.62,8.57-5.87,8.57s-5.88-3.77-5.88-8.69h4.45c0,1.2.64,2.13,1.43,2.13s1.45-.93,1.45-2.09-.67-2.13-1.45-2.13c-3.26,0-5.85-3.8-5.85-8.57s2.59-8.61,5.85-8.61,5.87,3.8,5.87,8.57Z"/><path class="cls-1" d="M305.63,874.1h5v28h-5Z"/><path class="cls-1" d="M328.48,902.06l-9-13.24v13.24h-5v-28h2l9,13.2V874.1h5v28Z"/><path class="cls-1" d="M334,874.06h15v7.31H344v20.69h-5V881.37H334Z"/><path class="cls-1" d="M352.48,874.1h11.84v6.08h-6.84v4.54h6v6.19h-6v5.15h6.84v6H352.48Z"/><path class="cls-1" d="M379,902.06l-3-7.42h-3.1v7.42h-5v-28h8c3.86,0,7,4.62,7,10.29a12.86,12.86,0,0,1-2.26,7.53l4,10.14Zm-6.05-13.76H376c1.53,0,2.75-1.75,2.75-4s-1.22-4-2.75-4h-3.1Z"/><path class="cls-1" d="M387.22,874.1h5v20.58h6.86v7.38H387.22Z"/><path class="cls-1" d="M402.66,874.1h5v28h-5Z"/><path class="cls-1" d="M425.52,902.06l-9-13.24v13.24h-5v-28h2l9,13.2V874.1h5v28Z"/><path class="cls-1" d="M449.85,874.1l-8.69,12.79,10.32,15.17h-7.07l-6.78-9.92-1.2,1.79v8.13h-5v-28h5v9.43l6.41-9.43Z"/><path class="cls-1" d="M453.25,874.1h11.84v6.08h-6.83v4.54h6v6.19h-6v5.15h6.83v6H453.25Z"/><path class="cls-1" d="M468.69,874.1h7.06c5.26,0,9.54,6.26,9.54,14s-4.28,14-9.54,14h-7.06Zm5,20.73h2.11c2.49,0,4.52-3,4.52-6.64s-2-6.6-4.52-6.6h-2.11Z"/></g><g id="Within3"><path class="cls-1" d="M1125.22,371.15l-8.89-4.13v-4.73l25-11.53V358L1126,365l10.4,4.76v2.77l-10.4,4.77,15.3,7.09v7.2l-25-11.56v-4.73Z"/><path class="cls-1" d="M1141.32,394.46V401h-25v-6.57Z"/><path class="cls-1" d="M1141.35,405.53v19.7h-6.53v-6.64h-18.49V412h18.49v-6.5Z"/><path class="cls-1" d="M1141.32,436.34h-8.9v7.92h8.9v6.57h-25v-6.57h9.53v-7.92h-9.53v-6.57h25Z"/><path class="cls-1" d="M1141.32,455.84v6.57h-25v-6.57Z"/><path class="cls-1" d="M1116.33,485.8,1128.16,474h-11.83v-6.57h25v2.67l-11.8,11.83h11.8v6.56h-25Z"/><path class="cls-1" d="M1133.05,524.64a5.8,5.8,0,0,0,1.64-4.19,5.87,5.87,0,1,0-10.07,4.19l-4.59,4.67a12.49,12.49,0,1,1,21.29-8.86,12.36,12.36,0,0,1-3.63,8.79Z"/><path class="cls-1" d="M1141.32,534.32v15.53h-5.43v-9h-4.07v7.92h-5.53v-7.92h-4.6v9h-5.36V534.32Z"/><path class="cls-1" d="M1141.32,554.56v6.56h-18.4v9h-6.59V554.56Z"/><path class="cls-1" d="M1141.32,574.83v6.56h-18.4v9h-6.59V574.83Z"/><path class="cls-1" d="M1133.65,604.29a1.91,1.91,0,0,0,1.9-1.9,1.88,1.88,0,0,0-1.9-1.86,1.86,1.86,0,0,0-1.86,1.86,7.73,7.73,0,1,1-7.7-7.69v5.83a1.87,1.87,0,0,0-1.9,1.86,1.89,1.89,0,0,0,1.87,1.9,1.92,1.92,0,0,0,1.9-1.9,7.68,7.68,0,1,1,7.69,7.7Z"/><path class="cls-1" d="M1141.32,629.74v6.56h-25v-6.56Z"/><path class="cls-1" d="M1116.33,659.7l11.83-11.8h-11.83v-6.56h25V644l-11.8,11.83h11.8v6.57h-25Z"/><path class="cls-1" d="M1141.35,666.91V686.6h-6.53V680h-18.49v-6.56h18.49v-6.5Z"/><path class="cls-1" d="M1141.32,691.15v15.52h-5.43v-9h-4.07v7.93h-5.53v-7.93h-4.6v9h-5.36V691.15Z"/><path class="cls-1" d="M1116.33,725.88,1123,722V718h-6.63v-6.57h25v10.53a9.17,9.17,0,0,1-15.93,6.23l-9.06,5.3Zm12.29-7.93V722a3.59,3.59,0,1,0,7.17,0V718Z"/><path class="cls-1" d="M1141.32,736.69v6.56h-18.4v9h-6.59V736.69Z"/><path class="cls-1" d="M1141.32,756.92v6.57h-25v-6.57Z"/><path class="cls-1" d="M1116.33,786.89l11.83-11.8h-11.83v-6.56h25v2.66L1129.52,783h11.8v6.56h-25Z"/><path class="cls-1" d="M1141.32,818.79l-11.43-11.4-13.56,13.53v-9.26l8.86-8.9-1.6-1.56h-7.26v-6.57h25v6.57h-8.43l8.43,8.39Z"/><path class="cls-1" d="M1141.32,823.23v15.53h-5.43v-9h-4.07v7.93h-5.53V829.8h-4.6v9h-5.36V823.23Z"/><path class="cls-1" d="M1141.32,843.47v9.26a12.5,12.5,0,1,1-25,0v-9.26ZM1122.79,850v2.77a5.92,5.92,0,1,0,11.83,0V850Z"/></g><g id="InterlinkedBig"><path class="cls-1" d="M87.24,946.94H98.35v42.3H87.24Z"/><path class="cls-1" d="M137.94,989.24l-20-20v20H106.86v-42.3h4.52l20,20v-20h11.11v42.3Z"/><path class="cls-1" d="M150.13,946.88h33.33v11.06H172.24v31.3H161.13v-31.3h-11Z"/><path class="cls-1" d="M191.13,946.94h26.29v9.19H202.24V963h13.43v9.37H202.24v7.78h15.18v9.08H191.13Z"/><path class="cls-1" d="M249.91,989.24,243.36,978h-6.88v11.22H225.37v-42.3h17.82a15.53,15.53,0,0,1,10.55,27l9,15.34Zm-13.43-20.81h6.88a6.07,6.07,0,1,0,0-12.13h-6.88Z"/><path class="cls-1" d="M268.18,946.94h11.11v31.13h15.23v11.17H268.18Z"/><path class="cls-1" d="M302.42,946.94h11.11v42.3H302.42Z"/><path class="cls-1" d="M353.12,989.24l-20-20v20H322.05v-42.3h4.51l20,20v-20h11.11v42.3Z"/><path class="cls-1" d="M407.1,946.94l-19.29,19.35,22.9,23H395l-15.06-15L377.32,977v12.29H366.21v-42.3h11.11v14.27l14.22-14.27Z"/><path class="cls-1" d="M414.6,946.94h26.29v9.19H425.72V963h13.42v9.37H425.72v7.78h15.17v9.08H414.6Z"/><path class="cls-1" d="M448.84,946.94h15.68a21.15,21.15,0,1,1,0,42.3H448.84Zm11.06,31.25h4.68a10,10,0,1,0,0-20H459.9Z"/></g><g id="Dramatic_music" data-name="Dramatic music"><path class="cls-1" d="M287.1,94.29v22a29.63,29.63,0,1,1-59.25,0v-22Zm-43.93,15.49v6.55a14,14,0,1,0,28.05,0v-6.55Z"/><path class="cls-1" d="M227.85,191l15.72-9.17v-9.63H227.85V156.62H287.1v25a21.75,21.75,0,0,1-37.76,14.77l-21.49,12.56ZM257,172.19v9.63a8.49,8.49,0,1,0,17,0v-9.63Z"/><path class="cls-1" d="M227.85,214.21l59.25,27.65v7l-59.25,27.89V261.22l7.74-3.64V233.33l-7.74-3.56Zm20.85,25.2V251.5l13-6Z"/><path class="cls-1" d="M265.14,315.88l22,24.1v7H227.85V331.37h30.41l-14.14-15.49,14.06-15.56H227.85V284.68H287.1v7Z"/><path class="cls-1" d="M227.85,355l59.25,27.65v7l-59.25,27.89V402l7.74-3.63V374.11l-7.74-3.56Zm20.85,25.2v12.09l13-6Z"/><path class="cls-1" d="M287.18,420.24v46.69H271.69V451.21H227.85V435.65h43.84V420.24Z"/><path class="cls-1" d="M287.1,477.6v15.56H227.85V477.6Z"/><path class="cls-1" d="M267.51,543.24a13.86,13.86,0,0,0,3.87-10,13.91,13.91,0,1,0-23.86,10l-10.9,11.06a29.62,29.62,0,1,1,41.87-.15Z"/><path class="cls-1" d="M265.14,632.91l22,24.09v7H227.85V648.39h30.41l-14.14-15.48,14.06-15.57H227.85V601.7H287.1v7Z"/><path class="cls-1" d="M251.47,691.52a7.75,7.75,0,0,0,0,15.49H287.1v15.64H251.23a23.39,23.39,0,0,1,0-46.77H287.1v15.64Z"/><path class="cls-1" d="M268.93,756.3a4.55,4.55,0,0,0,4.5-4.5,4.48,4.48,0,0,0-4.5-4.42,4.42,4.42,0,0,0-4.43,4.42,18.33,18.33,0,1,1-18.25-18.25v13.83a4.43,4.43,0,0,0-4.5,4.42,4.49,4.49,0,0,0,4.43,4.5,4.55,4.55,0,0,0,4.5-4.5,18.21,18.21,0,1,1,18.25,18.25Z"/><path class="cls-1" d="M287.1,781v15.56H227.85V781Z"/><path class="cls-1" d="M267.51,846.68a13.88,13.88,0,0,0,3.87-10,13.91,13.91,0,1,0-23.86,10l-10.9,11.06a29.62,29.62,0,1,1,50.48-21,29.32,29.32,0,0,1-8.61,20.86Z"/></g><g id="Buzzer2"><path class="cls-1" d="M495.36,987.63V874.06h50.13c18.17,0,33.62,15.6,33.62,33.77a33.27,33.27,0,0,1-7.27,20.44,33.86,33.86,0,0,1,12.87,26.05c0,18-15.3,33.31-33.32,33.31Zm44.22-69.2a9.85,9.85,0,0,0,0-19.69H525.2v19.69Zm5.6,44.67a9.82,9.82,0,0,0,9.85-9.84,10,10,0,0,0-9.85-9.84h-20V963.1Z"/><path class="cls-1" d="M632.41,942.36a14.84,14.84,0,0,0,29.68,0v-68.3h30v68.75a44.83,44.83,0,0,1-89.65,0V874.06h30Z"/><path class="cls-1" d="M758.7,957.8h43.91v29.83H707.06L755.36,904H709.94v-30H807Z"/><path class="cls-1" d="M866.21,957.8h43.91v29.83H814.57L862.88,904H817.45v-30h97.06Z"/><path class="cls-1" d="M973.72,957.8h43.92v29.83H922.08L970.39,904H925v-30H1022Z"/><path class="cls-1" d="M1037.32,874.06h70.57v24.68h-40.74v18.48h36v25.14h-36v20.89h40.74v24.38h-70.57Z"/><path class="cls-1" d="M1195.11,987.63l-17.57-30.13h-18.47v30.13h-29.84V874.06h47.86a41.69,41.69,0,0,1,28.31,72.38l24.08,41.19Zm-36-55.87h18.47a16.28,16.28,0,1,0,0-32.56h-18.47Z"/><path class="cls-1" d="M1310,987.63l-17.57-30.13H1274v30.13h-29.83V874.06H1292a41.69,41.69,0,0,1,28.32,72.38l24.07,41.19Zm-36-55.87h18.47a16.28,16.28,0,1,0,0-32.56H1274Z"/></g><g id="High_beep1" data-name="High beep1"><path class="cls-1" d="M1095.91,110.47h-19.74v17.31h19.74V142.1h-55.45V127.78h21.15V110.47h-21.15V96.15h55.45Z"/><path class="cls-1" d="M1095.91,153v14.32h-55.45V153Z"/><path class="cls-1" d="M1070.26,232h-2.07a27.5,27.5,0,0,1-27.73-27.26c0-15.05,12.42-27.19,27.73-27.19s27.72,12.14,27.72,27.19a27,27,0,0,1-8.06,19.19l-10.2-10.1a13.06,13.06,0,1,0-22.62-9.09,12.79,12.79,0,0,0,5.47,10.54V204.69h9.76Z"/><path class="cls-1" d="M1095.91,254.13h-19.74v17.3h19.74v14.32h-55.45V271.43h21.15v-17.3h-21.15V239.8h55.45Z"/><path class="cls-1" d="M1040.46,329.44h55.45V353.5c0,8.73-7.61,16.14-16.49,16.14a16.41,16.41,0,0,1-10-3.49,16.61,16.61,0,0,1-12.71,6.18,16.37,16.37,0,0,1-16.27-16Zm33.79,21.23a4.81,4.81,0,0,0,9.61,0v-6.91h-9.61Zm-21.81,2.69a4.75,4.75,0,0,0,4.8,4.72,4.85,4.85,0,0,0,4.81-4.72v-9.6h-9.61Z"/><path class="cls-1" d="M1095.91,380.91v33.88h-12.05V395.23h-9v17.31h-12.27V395.23h-10.2v19.56h-11.91V380.91Z"/><path class="cls-1" d="M1095.91,425v33.88h-12.05V439.36h-9v17.3h-12.27v-17.3h-10.2v19.56h-11.91V425Z"/><path class="cls-1" d="M1095.91,469.17v33.88h-12.05V483.49h-9v17.3h-12.27v-17.3h-10.2v19.56h-11.91V469.17Z"/><path class="cls-1" d="M1095.91,513.3v33.87h-12.05V527.62h-9v17.3h-12.27v-17.3h-10.2v19.55h-11.91V513.3Z"/><path class="cls-1" d="M1095.91,557.42V591.3h-12.05V571.75h-9v17.3h-12.27v-17.3h-10.2V591.3h-11.91V557.42Z"/><path class="cls-1" d="M1095.91,601.55v33.88h-12.05V615.87h-9v17.3h-12.27v-17.3h-10.2v19.56h-11.91V601.55Z"/><path class="cls-1" d="M1095.91,645.68v33.88h-12.05V660h-9v17.3h-12.27V660h-10.2v19.56h-11.91V645.68Z"/><path class="cls-1" d="M1095.91,689.81v33.87h-12.05V704.13h-9v17.3h-12.27v-17.3h-10.2v19.55h-11.91V689.81Z"/><path class="cls-1" d="M1095.91,733.94v33.87h-12.05V748.26h-9v17.3h-12.27v-17.3h-10.2v19.55h-11.91V733.94Z"/><path class="cls-1" d="M1095.91,778.06v33.88h-12.05V792.39h-9v17.3h-12.27v-17.3h-10.2v19.55h-11.91V778.06Z"/><path class="cls-1" d="M1095.91,822.19v23a20.28,20.28,0,0,1-20.4,20.07c-11.17,0-20.34-8.94-20.34-19.77v-9h-14.71V822.19Zm-28.17,14.32v8.87a8,8,0,0,0,15.9,0v-8.87Z"/></g><g id="High_beep2" data-name="High beep2"><path class="cls-1" d="M76.68,111.1H54.09v20.14H76.68V147.9H13.22V131.24h24.2V111.1H13.22V94.43H76.68Z"/><path class="cls-1" d="M76.68,160.59v16.67H13.22V160.59Z"/><path class="cls-1" d="M47.32,252.47H45a31.77,31.77,0,1,1,22.51-9.39L55.78,231.32A15.17,15.17,0,0,0,60,220.75,15.06,15.06,0,1,0,36.15,233V220.75H47.32Z"/><path class="cls-1" d="M76.68,278.28H54.09v20.13H76.68v16.67H13.22V298.41h24.2V278.28H13.22V261.61H76.68Z"/><path class="cls-1" d="M13.22,365.93H76.68v28a19.15,19.15,0,0,1-18.87,18.78,18.55,18.55,0,0,1-11.42-4.06,18.91,18.91,0,0,1-14.55,7.2,18.9,18.9,0,0,1-18.62-18.62Zm13.71,27.83a5.48,5.48,0,0,0,5.5,5.5,5.6,5.6,0,0,0,5.5-5.5V382.59h-11Zm25-3.13a5.5,5.5,0,0,0,11,0v-8h-11Z"/><path class="cls-1" d="M76.68,425.83v39.42H62.89V442.49H52.56v20.14h-14V442.49H26.84v22.76H13.22V425.83Z"/><path class="cls-1" d="M76.68,477.18v39.43H62.89V493.85H52.56V514h-14V493.85H26.84v22.76H13.22V477.18Z"/><path class="cls-1" d="M76.68,528.54V568H62.89V545.2H52.56v20.14h-14V545.2H26.84V568H13.22V528.54Z"/><path class="cls-1" d="M76.68,579.89v39.43H62.89V596.56H52.56V616.7h-14V596.56H26.84v22.76H13.22V579.89Z"/><path class="cls-1" d="M76.68,631.25v39.42H62.89V647.91H52.56v20.14h-14V647.91H26.84v22.76H13.22V631.25Z"/><path class="cls-1" d="M76.68,682.6V722H62.89V699.27H52.56v20.14h-14V699.27H26.84V722H13.22V682.6Z"/><path class="cls-1" d="M76.68,734v39.42H62.89V750.62H52.56v20.14h-14V750.62H26.84v22.76H13.22V734Z"/><path class="cls-1" d="M76.68,785.31v39.43H62.89V802H52.56v20.14h-14V802H26.84v22.76H13.22V785.31Z"/><path class="cls-1" d="M76.68,836.67v39.42H62.89V853.33H52.56v20.14h-14V853.33H26.84v22.76H13.22V836.67Z"/><path class="cls-1" d="M76.68,888v39.43H62.89V904.69H52.56v20.14h-14V904.69H26.84v22.76H13.22V888Z"/><path class="cls-1" d="M76.68,939.38v26.73a23.31,23.31,0,0,1-46.62.34V956H13.22V939.38ZM44.44,956v10.33a9.1,9.1,0,1,0,18.19,0V956Z"/></g></svg>