<?xml version="1.0" encoding="utf-8"?>
<!-- Generator: Adobe Illustrator 24.1.2, SVG Export Plug-In . SVG Version: 6.00 Build 0)  -->
<svg version="1.1" id="Capa_1" xmlns="http://www.w3.org/2000/svg" xmlns:xlink="http://www.w3.org/1999/xlink" x="0px" y="0px"
	 viewBox="0 0 644 644" style="enable-background:new 0 0 644 644;" xml:space="preserve">
<style type="text/css">
	.st0{fill:#FFFFFF;}
</style>
<g>
	<path class="st0" d="M363.5,84.7c-5.9-2.8-12.9-2.1-18.1,2l-166,132.8h-79.3c-18.8,0-34.1,15.3-34.1,34.1v136.5
		c0,18.8,15.3,34.1,34.1,34.1h79.3l166,132.8c3.1,2.5,6.9,3.7,10.7,3.7c2.5,0,5.1-0.6,7.4-1.7c5.9-2.8,9.7-8.8,9.7-15.4V100.1
		C373.2,93.6,369.4,87.6,363.5,84.7z"/>
	<path class="st0" d="M459.6,201.3c-6.7-6.6-17.5-6.5-24.1,0.1c-6.6,6.7-6.6,17.5,0.1,24.2c25.8,25.5,40,59.7,40,96.4
		s-14.2,70.9-40,96.4c-6.7,6.6-6.8,17.4-0.1,24.1c3.3,3.4,7.7,5.1,12.1,5.1c4.3,0,8.7-1.6,12-4.9c32.4-31.8,50.1-74.7,50.1-120.6
		S491.9,233.2,459.6,201.3z"/>
	<path class="st0" d="M507.8,153.2c-6.7-6.7-17.5-6.6-24.2,0.1c-6.6,6.7-6.6,17.5,0.1,24.1c38.8,38.5,60.2,89.8,60.2,144.6
		s-21.4,106.1-60.2,144.5c-6.7,6.7-6.7,17.5-0.1,24.2c3.4,3.3,7.7,5,12.1,5c4.3,0,8.7-1.6,12-4.9C553.1,445.9,578,385.9,578,322
		S553.1,198.1,507.8,153.2z"/>
</g>
</svg>
